<svg width="54" height="54" viewBox="0 0 54 54" fill="none" xmlns="http://www.w3.org/2000/svg">
<g clip-path="url(#clip0_27_131)">
<path d="M27 17C29.717 17 30.056 17.01 31.122 17.06C32.187 17.11 32.912 17.277 33.55 17.525C34.21 17.779 34.766 18.123 35.322 18.678C35.8305 19.1779 36.224 19.7826 36.475 20.45C36.722 21.087 36.89 21.813 36.94 22.878C36.987 23.944 37 24.283 37 27C37 29.717 36.99 30.056 36.94 31.122C36.89 32.187 36.722 32.912 36.475 33.55C36.2247 34.2178 35.8311 34.8226 35.322 35.322C34.822 35.8303 34.2173 36.2238 33.55 36.475C32.913 36.722 32.187 36.89 31.122 36.94C30.056 36.987 29.717 37 27 37C24.283 37 23.944 36.99 22.878 36.94C21.813 36.89 21.088 36.722 20.45 36.475C19.7823 36.2245 19.1775 35.8309 18.678 35.322C18.1694 34.8222 17.7759 34.2175 17.525 33.55C17.277 32.913 17.11 32.187 17.06 31.122C17.013 30.056 17 29.717 17 27C17 24.283 17.01 23.944 17.06 22.878C17.11 21.812 17.277 21.088 17.525 20.45C17.7752 19.7822 18.1688 19.1773 18.678 18.678C19.1777 18.1692 19.7824 17.7757 20.45 17.525C21.088 17.277 21.812 17.11 22.878 17.06C23.944 17.013 24.283 17 27 17ZM27 22C25.6739 22 24.4021 22.5268 23.4645 23.4645C22.5268 24.4021 22 25.6739 22 27C22 28.3261 22.5268 29.5979 23.4645 30.5355C24.4021 31.4732 25.6739 32 27 32C28.3261 32 29.5979 31.4732 30.5355 30.5355C31.4732 29.5979 32 28.3261 32 27C32 25.6739 31.4732 24.4021 30.5355 23.4645C29.5979 22.5268 28.3261 22 27 22V22ZM33.5 21.75C33.5 21.4185 33.3683 21.1005 33.1339 20.8661C32.8995 20.6317 32.5815 20.5 32.25 20.5C31.9185 20.5 31.6005 20.6317 31.3661 20.8661C31.1317 21.1005 31 21.4185 31 21.75C31 22.0815 31.1317 22.3995 31.3661 22.6339C31.6005 22.8683 31.9185 23 32.25 23C32.5815 23 32.8995 22.8683 33.1339 22.6339C33.3683 22.3995 33.5 22.0815 33.5 21.75ZM27 24C27.7956 24 28.5587 24.3161 29.1213 24.8787C29.6839 25.4413 30 26.2044 30 27C30 27.7956 29.6839 28.5587 29.1213 29.1213C28.5587 29.6839 27.7956 30 27 30C26.2044 30 25.4413 29.6839 24.8787 29.1213C24.3161 28.5587 24 27.7956 24 27C24 26.2044 24.3161 25.4413 24.8787 24.8787C25.4413 24.3161 26.2044 24 27 24V24Z" fill="white"/>
</g>
<circle cx="27" cy="27" r="26.5" stroke="white"/>
<defs>
<clipPath id="clip0_27_131">
<rect width="24" height="24" fill="white" transform="translate(15 15)"/>
</clipPath>
</defs>
</svg>
