<svg width="54" height="54" viewBox="0 0 54 54" fill="none" xmlns="http://www.w3.org/2000/svg">
<g clip-path="url(#clip0_27_141)">
<path d="M21.9399 20C21.9397 20.5305 21.7287 21.0391 21.3534 21.4139C20.9782 21.7888 20.4694 21.9993 19.9389 21.999C19.4085 21.9988 18.8999 21.7878 18.525 21.4125C18.1501 21.0373 17.9397 20.5285 17.9399 19.998C17.9402 19.4676 18.1512 18.959 18.5264 18.5841C18.9017 18.2092 19.4105 17.9988 19.9409 17.999C20.4714 17.9993 20.98 18.2103 21.3549 18.5855C21.7297 18.9608 21.9402 19.4696 21.9399 20V20ZM21.9999 23.48H17.9999V36H21.9999V23.48ZM28.3199 23.48H24.3399V36H28.2799V29.43C28.2799 25.77 33.0499 25.43 33.0499 29.43V36H36.9999V28.07C36.9999 21.9 29.9399 22.13 28.2799 25.16L28.3199 23.48V23.48Z" fill="white"/>
</g>
<circle cx="27" cy="27" r="26.5" stroke="white"/>
<defs>
<clipPath id="clip0_27_141">
<rect width="24" height="24" fill="white" transform="translate(15 15)"/>
</clipPath>
</defs>
</svg>
