<svg width="387" height="382" viewBox="0 0 387 382" fill="none" xmlns="http://www.w3.org/2000/svg">
<path fill-rule="evenodd" clip-rule="evenodd" d="M185.017 79.8699C183.486 79.9639 182.046 80.1929 181.817 80.3799C181.588 80.5659 179.825 80.8489 177.9 81.0069C175.975 81.1649 174.4 81.4359 174.4 81.6079C174.4 81.7799 173.32 82.0469 171.999 82.1999C170.679 82.3529 169.498 82.6409 169.376 82.8389C169.253 83.0379 168.724 83.1999 168.2 83.1999C167.676 83.1999 167.151 83.3559 167.033 83.5459C166.915 83.7369 166.386 83.8099 165.856 83.7089C165.327 83.6069 164.772 83.7219 164.623 83.9619C164.475 84.2029 164.003 84.3999 163.576 84.3999C163.149 84.3999 162.8 84.5629 162.8 84.7629C162.8 84.9619 162.46 85.0359 162.045 84.9279C161.63 84.8189 161.169 84.9259 161.022 85.1649C160.874 85.4039 160.403 85.5999 159.976 85.5999C159.549 85.5999 159.2 85.7739 159.2 85.9869C159.2 86.2009 158.936 86.2739 158.614 86.1499C158.292 86.0259 157.507 86.2969 156.869 86.7509C156.231 87.2049 155.622 87.4879 155.514 87.3809C155.407 87.2739 154.797 87.4579 154.16 87.7899C153.522 88.1229 152.82 88.3929 152.6 88.3909C152.066 88.3849 145.467 91.6999 145.155 92.1309C145.021 92.3159 144.841 92.4579 144.755 92.4449C144.173 92.3599 142.8 92.9689 142.8 93.3129C142.8 93.5439 142.688 93.6209 142.551 93.4839C142.413 93.3469 141.738 93.6419 141.051 94.1399C140.363 94.6379 139.125 95.3909 138.3 95.8139C137.475 96.2359 136.8 96.7319 136.8 96.9149C136.8 97.0979 136.64 97.1489 136.445 97.0279C136.25 96.9069 135.868 97.0769 135.596 97.4039C135.324 97.7319 134.894 97.9999 134.639 97.9999C134.385 97.9999 133.917 98.3599 133.6 98.7999C133.283 99.2399 132.821 99.5999 132.574 99.5999C132.326 99.5999 131.829 99.9259 131.467 100.325C130.373 101.535 131.369 102 135.056 102C136.983 102 138.464 102.179 138.62 102.432C138.79 102.707 139.593 102.766 140.843 102.594C142.157 102.413 142.8 102.469 142.8 102.762C142.8 103.006 143.508 103.2 144.4 103.2C145.307 103.2 146 103.393 146 103.645C146 103.934 146.478 103.999 147.369 103.832C148.163 103.683 148.845 103.749 148.992 103.988C149.133 104.214 149.676 104.4 150.2 104.4C150.724 104.4 151.269 104.587 151.41 104.816C151.552 105.045 152.001 105.127 152.409 104.997C152.816 104.868 153.476 104.937 153.875 105.152C154.752 105.624 156.054 106.132 156.6 106.216C157.002 106.278 157.523 106.456 159 107.039C159.44 107.212 159.98 107.382 160.2 107.416C160.574 107.473 160.931 107.595 162.7 108.265C163.085 108.411 163.49 108.556 163.6 108.586C163.71 108.616 164.645 109.036 165.678 109.52C166.711 110.004 167.8 110.4 168.098 110.4C168.396 110.4 168.856 110.616 169.12 110.88C169.384 111.144 169.603 111.189 169.606 110.98C169.609 110.771 169.744 110.788 169.906 111.017C170.068 111.246 171.647 112.161 173.415 113.049L176.63 114.665L177.334 113.733C177.721 113.22 178.235 112.8 178.477 112.8C178.719 112.8 179.765 112.035 180.8 111.1C181.836 110.165 183.115 109.083 183.642 108.696C184.169 108.31 185.185 107.529 185.9 106.961C186.615 106.393 187.2 106.062 187.2 106.226C187.2 106.389 187.56 106.107 188 105.6C188.44 105.093 188.8 104.816 188.8 104.986C188.8 105.156 189.385 104.849 190.1 104.305C190.815 103.761 191.85 103.176 192.4 103.005C192.95 102.835 193.895 102.346 194.5 101.92C195.105 101.494 195.6 101.26 195.6 101.4C195.6 101.54 196.125 101.281 196.766 100.824C197.408 100.367 198.488 99.8819 199.166 99.7469C199.845 99.6109 200.4 99.3509 200.4 99.1679C200.4 98.9859 201.032 98.7179 201.804 98.5729C202.577 98.4279 203.304 98.1549 203.421 97.9659C203.537 97.7779 204.525 97.5049 205.616 97.3599C206.707 97.2149 207.6 96.9509 207.6 96.7729C207.6 96.5939 208.86 96.3239 210.4 96.1729C211.94 96.0209 213.2 95.7299 213.2 95.5269C213.2 95.1539 214.395 95.0959 222 95.0979C229.516 95.0999 230.4 95.1509 230.4 95.5789C230.4 95.8109 230.985 96.0029 231.7 96.0059C232.415 96.0089 233.45 96.2709 234 96.5889C234.55 96.9059 235.41 97.3509 235.91 97.5769C236.411 97.8029 236.937 98.3059 237.078 98.6939C237.22 99.0819 237.666 99.8289 238.068 100.354C238.471 100.879 238.8 101.813 238.8 102.43C238.8 103.048 238.98 103.664 239.2 103.8C239.42 103.936 239.6 104.487 239.6 105.024C239.6 105.561 239.42 106 239.2 106C238.98 106 238.8 106.361 238.8 106.801C238.8 109.031 235.694 112.712 233.519 113.059C232.674 113.195 231.886 113.461 231.768 113.653C231.436 114.19 228.888 114.063 228.7 113.5C228.474 112.823 214.112 112.777 213.685 113.452C213.528 113.7 212.455 114.032 211.3 114.189C210.145 114.346 209.2 114.638 209.2 114.838C209.2 115.037 208.905 115.2 208.544 115.2C207.788 115.2 204.266 116.852 204.067 117.3C203.993 117.465 203.757 117.6 203.542 117.6C203.131 117.6 199.562 119.287 198.216 120.117C197.785 120.382 197.097 121.005 196.687 121.5C196.277 121.995 195.719 122.4 195.446 122.4C195.173 122.4 194.433 122.939 193.803 123.597L192.655 124.795L193.597 125.797C194.116 126.349 194.742 126.8 194.988 126.8C195.235 126.8 195.879 127.332 196.419 127.983C196.958 128.634 197.588 129.174 197.817 129.183C198.046 129.192 199.028 130.01 200 131C200.972 131.99 201.969 132.8 202.217 132.8C202.465 132.8 203.498 133.655 204.513 134.7C205.528 135.745 207.373 137.41 208.613 138.4C209.853 139.39 211.372 140.65 211.988 141.2C213.348 142.413 214.324 143.082 215.447 143.571C215.914 143.774 216.659 144.404 217.105 144.97C217.551 145.537 218.083 146 218.288 146C218.493 146 219.083 146.449 219.599 146.998C220.114 147.548 220.627 147.906 220.739 147.795C220.85 147.684 221.359 147.986 221.87 148.466C222.382 148.946 222.8 149.198 222.8 149.025C222.8 148.853 223.154 149.136 223.587 149.656C224.019 150.175 224.379 150.444 224.387 150.253C224.394 150.061 225.018 150.376 225.773 150.953C226.529 151.529 227.266 152 227.412 152C227.557 152 228.24 152.402 228.93 152.892C230.68 154.139 236.061 156.778 236.876 156.79C237.248 156.795 237.666 156.983 237.804 157.207C237.942 157.43 238.223 157.509 238.428 157.383C238.632 157.256 238.8 157.343 238.8 157.576C238.8 157.809 239.25 158 239.8 158C240.35 158 240.8 158.169 240.8 158.375C240.8 158.582 241.61 158.872 242.6 159.021C243.59 159.169 244.4 159.436 244.4 159.614C244.4 159.791 245.573 160.062 247.006 160.215C248.439 160.369 249.709 160.653 249.829 160.847C250.112 161.304 258.685 161.309 258.968 160.853C259.086 160.661 259.862 160.396 260.693 160.263C262.427 159.986 266.61 157.95 267.714 156.846C267.959 156.601 268.563 156.4 269.056 156.4C269.549 156.4 270.064 156.22 270.2 156C270.502 155.511 272.555 155.474 273.505 155.941C273.887 156.129 274.92 156.614 275.8 157.02C277.693 157.893 279.2 159.142 279.2 159.836C279.2 160.11 279.425 160.408 279.7 160.5C280.492 160.764 280.591 167.533 279.821 168.8C279.486 169.35 279.105 170.093 278.972 170.451C278.84 170.809 278.342 171.303 277.866 171.548C276.392 172.307 275.439 172.97 274.736 173.726C274.364 174.126 273.961 174.456 273.839 174.461C273.07 174.492 272 174.949 272 175.247C272 175.441 271.685 175.601 271.3 175.602C270.915 175.604 270.086 175.873 269.458 176.2C268.83 176.528 268.168 176.704 267.986 176.591C267.804 176.479 267.542 176.57 267.404 176.793C267.266 177.017 266.623 177.2 265.976 177.2C265.329 177.2 264.8 177.396 264.8 177.635C264.8 177.919 264.259 177.979 263.241 177.807C262.284 177.645 261.58 177.709 261.417 177.972C261.05 178.566 248.145 178.558 247.778 177.964C247.617 177.704 246.974 177.628 246.185 177.776C245.431 177.918 244.753 177.847 244.608 177.612C244.467 177.386 243.744 177.2 243 177.2C242.256 177.2 241.531 177.013 241.39 176.784C241.248 176.555 240.788 176.477 240.366 176.611C239.938 176.747 239.6 176.666 239.6 176.427C239.6 176.192 239.071 176 238.424 176C237.777 176 237.134 175.817 236.996 175.593C236.858 175.37 236.584 175.286 236.389 175.407C236.193 175.528 235.71 175.461 235.316 175.258C234.611 174.894 233.215 174.269 230.34 173.03C229.536 172.683 228.602 172.4 228.263 172.4C227.924 172.4 227.534 172.217 227.396 171.993C227.258 171.77 226.977 171.691 226.772 171.817C226.568 171.944 226.4 171.901 226.4 171.721C226.4 171.358 222.372 169.385 221.9 169.516C221.735 169.562 221.6 169.42 221.6 169.2C221.6 168.98 221.42 168.8 221.2 168.8C220.957 168.8 220.8 170.592 220.8 173.376C220.8 176.236 220.637 178.053 220.366 178.221C220.107 178.381 219.986 179.43 220.065 180.812C220.139 182.089 220.064 183.269 219.9 183.434C219.735 183.599 219.6 184.503 219.6 185.443C219.6 186.383 219.403 187.275 219.162 187.424C218.921 187.573 218.795 188.303 218.881 189.047C218.968 189.791 218.896 190.4 218.72 190.4C218.544 190.4 218.4 191.12 218.4 192C218.4 192.88 218.241 193.6 218.046 193.6C217.851 193.6 217.569 194.587 217.418 195.794C217.267 197 216.987 198.084 216.795 198.203C216.603 198.322 216.325 199.224 216.178 200.209C216.03 201.194 215.761 202 215.579 202C215.398 202 215.128 202.81 214.979 203.8C214.831 204.79 214.564 205.6 214.386 205.6C214.209 205.6 213.936 206.185 213.781 206.9C213.625 207.615 213.251 208.555 212.949 208.989C212.647 209.423 212.4 210.188 212.4 210.689C212.4 211.19 212.234 211.6 212.032 211.6C211.829 211.6 211.545 212.14 211.4 212.8C211.255 213.46 210.985 214 210.8 214C210.615 214 210.345 214.54 210.2 215.2C210.055 215.86 209.785 216.4 209.6 216.4C209.415 216.4 209.145 216.94 209 217.6C208.855 218.26 208.61 218.8 208.456 218.8C208.302 218.8 207.959 219.295 207.696 219.9C207.146 221.161 205.199 224.502 204.84 224.8C204.485 225.095 203.653 226.472 203.209 227.5C202.995 227.995 202.635 228.4 202.41 228.4C202.184 228.4 202 228.642 202 228.938C202 229.234 201.64 229.802 201.2 230.2C200.76 230.598 200.4 231.136 200.4 231.396C200.4 231.655 199.905 232.326 199.3 232.885C198.695 233.445 197.425 234.825 196.478 235.952C195.531 237.078 194.496 238 194.178 238C193.86 238 193.6 238.172 193.6 238.382C193.6 238.592 192.968 238.882 192.196 239.027C191.423 239.172 190.693 239.45 190.572 239.645C190.271 240.132 187.306 240.095 187 239.6C186.864 239.38 186.367 239.2 185.896 239.2C184.34 239.2 180.51 234.806 180.187 232.65C179.673 229.224 180.826 226.076 183.568 223.419C184.466 222.549 185.2 221.617 185.2 221.348C185.2 221.078 185.65 220.504 186.2 220.071C186.75 219.639 187.2 219.114 187.2 218.904C187.2 218.695 187.56 218.198 188 217.8C188.44 217.402 188.8 216.834 188.8 216.538C188.8 216.242 188.948 216 189.129 216C189.31 216 189.863 215.19 190.357 214.2C190.852 213.21 191.409 212.4 191.596 212.4C191.783 212.4 192.055 211.86 192.2 211.2C192.345 210.54 192.629 210 192.832 210C193.034 210 193.2 209.797 193.2 209.549C193.2 208.977 195.623 204.033 196.025 203.785C196.19 203.683 196.231 203.239 196.116 202.8C196.001 202.36 196.093 202 196.322 202C196.55 202 196.864 201.421 197.019 200.713C197.175 200.005 197.446 199.15 197.622 198.813C198.014 198.06 198.501 196.738 198.584 196.2C198.664 195.681 199.165 194.376 199.604 193.546C199.794 193.186 199.85 192.511 199.728 192.046C199.6 191.558 199.696 191.2 199.953 191.2C200.199 191.2 200.4 190.671 200.4 190.024C200.4 189.377 200.591 188.729 200.823 188.586C201.062 188.438 201.139 187.832 201 187.2C200.861 186.568 200.938 185.962 201.177 185.814C201.409 185.671 201.6 184.854 201.6 184C201.6 183.146 201.784 182.334 202.008 182.195C202.263 182.037 202.317 180.976 202.153 179.371C201.968 177.561 202.024 176.8 202.345 176.8C202.974 176.8 202.987 162.563 202.359 162.174C202.064 161.992 202.008 161.056 202.191 159.351C202.357 157.793 202.314 156.8 202.078 156.8C201.867 156.8 201.599 156.441 201.485 156.002C201.37 155.563 200.944 155.079 200.538 154.925C200.132 154.772 199.218 154.096 198.507 153.423C197.795 152.75 196.208 151.39 194.979 150.4C193.75 149.41 191.67 147.565 190.355 146.3C189.041 145.035 187.86 144 187.731 144C187.51 144 185.593 142.43 183.084 140.195C182.47 139.648 181.826 139.2 181.653 139.2C181.481 139.2 180.917 138.751 180.401 138.202C179.886 137.652 179.381 137.286 179.28 137.386C179.18 137.487 178.339 136.948 177.412 136.188C176.485 135.429 175.608 134.925 175.463 135.07C175.318 135.215 175.2 135.144 175.2 134.913C175.2 134.682 174.885 134.379 174.5 134.24C173.532 133.89 171.942 132.941 171.646 132.536C171.036 131.703 159.499 126 158.422 126C158.19 126 158 125.799 158 125.553C158 125.304 157.647 125.199 157.2 125.316C156.76 125.431 156.4 125.362 156.4 125.163C156.4 124.963 156.051 124.8 155.624 124.8C155.197 124.8 154.742 124.63 154.614 124.423C154.486 124.216 153.576 123.925 152.591 123.778C151.606 123.63 150.8 123.361 150.8 123.179C150.8 122.998 149.945 122.725 148.9 122.574C147.855 122.423 146.808 122.147 146.574 121.962C146.339 121.776 145.079 121.502 143.774 121.352C142.468 121.202 141.304 120.934 141.188 120.758C141.071 120.581 139.04 120.311 136.674 120.159C134.309 120.006 132.279 119.727 132.163 119.54C131.888 119.096 120.912 119.096 120.637 119.54C120.521 119.727 118.486 120.005 116.113 120.158C113.741 120.31 111.74 120.607 111.667 120.817C111.593 121.028 111.098 121.2 110.567 121.2C109.615 121.2 108.884 121.784 107.496 123.652C107.11 124.174 106.375 125.14 105.865 125.8C105.354 126.46 104.821 127.315 104.681 127.7C104.54 128.085 104.239 128.4 104.013 128.4C103.786 128.4 103.6 128.587 103.6 128.816C103.6 129.179 102.173 131.442 101.592 132C101.477 132.11 101.155 132.65 100.876 133.2C100.597 133.75 99.7519 135.28 98.9979 136.6C98.2439 137.92 97.5099 139.315 97.3669 139.7C97.2239 140.085 96.9619 140.4 96.7849 140.4C96.6079 140.4 96.3449 140.94 96.1999 141.6C96.0549 142.26 95.7709 142.8 95.5679 142.8C95.3659 142.8 95.1989 143.115 95.1979 143.5C95.1979 143.885 94.6639 145.27 94.0129 146.577C93.3619 147.884 92.7189 149.459 92.5829 150.077C92.4469 150.695 92.1909 151.2 92.0139 151.2C91.8359 151.2 91.5689 152.01 91.4209 153C91.2719 153.99 91.0019 154.8 90.8209 154.8C90.6389 154.8 90.3689 155.61 90.2209 156.6C90.0719 157.59 89.7989 158.4 89.6129 158.4C89.4269 158.4 89.1509 159.3 88.9999 160.4C88.8489 161.499 88.5799 162.489 88.4019 162.599C88.2239 162.709 87.9529 163.879 87.7999 165.199C87.6469 166.52 87.3589 167.6 87.1609 167.6C86.9619 167.6 86.7999 168.219 86.7999 168.976C86.7999 169.733 86.6069 170.472 86.3719 170.617C86.1119 170.778 86.0439 171.478 86.1999 172.4C86.3559 173.322 86.2879 174.022 86.0279 174.183C85.7929 174.328 85.5999 175.326 85.5999 176.4C85.5999 177.474 85.4199 178.464 85.1999 178.6C84.9499 178.754 84.8949 180.101 85.0539 182.167C85.2309 184.464 85.1689 185.572 84.8549 185.766C84.0789 186.246 84.2209 231.353 84.9999 232C85.3299 232.274 85.5999 232.374 85.5999 232.222C85.5999 232.07 86.1239 232.318 86.7639 232.774C87.4039 233.23 88.2139 233.493 88.5639 233.359C88.9139 233.224 89.1999 233.293 89.1999 233.511C89.1999 233.854 89.9539 234.222 91.3999 234.585C92.7729 234.929 93.5999 235.346 93.5999 235.693C93.5999 235.913 93.9599 235.999 94.3999 235.884C94.8399 235.769 95.1999 235.838 95.1999 236.037C95.1999 236.237 95.6499 236.4 96.1999 236.4C96.7499 236.4 97.1999 236.601 97.1999 236.847C97.1999 237.096 97.5529 237.201 97.9999 237.084C98.4399 236.969 98.7999 237.038 98.7999 237.237C98.7999 237.437 99.3289 237.6 99.9759 237.6C100.623 237.6 101.273 237.795 101.42 238.032C101.567 238.27 102.118 238.357 102.644 238.225C103.183 238.089 103.6 238.162 103.6 238.392C103.6 238.617 104.104 238.8 104.72 238.8C105.336 238.8 106.035 238.995 106.274 239.234C106.512 239.472 107.133 239.607 107.654 239.534C108.704 239.385 109.298 235.938 108.424 235.064C107.883 234.523 107.844 217.872 108.382 216.895C108.591 216.513 108.877 214.805 109.016 213.1C109.155 211.395 109.412 210 109.588 210C109.764 210 110.036 208.965 110.192 207.7C110.349 206.435 110.619 205.22 110.792 205C110.966 204.78 111.235 204.003 111.392 203.273C111.548 202.543 111.927 201.463 112.235 200.873C112.543 200.283 112.796 199.485 112.798 199.1C112.799 198.715 112.96 198.4 113.157 198.4C113.353 198.4 113.634 197.905 113.782 197.3C114.157 195.77 117.614 188.8 117.998 188.8C118.172 188.8 118.435 188.313 118.585 187.718C118.734 187.123 119.207 186.39 119.635 186.091C120.063 185.791 120.322 185.398 120.211 185.218C120.1 185.038 120.277 184.668 120.604 184.396C120.932 184.124 121.2 183.697 121.2 183.447C121.2 183.197 121.567 182.763 122.016 182.483C122.464 182.203 122.74 181.826 122.628 181.645C122.516 181.464 122.869 180.899 123.412 180.388C123.956 179.878 124.4 179.286 124.4 179.074C124.4 178.861 124.931 178.127 125.581 177.443C132.866 169.77 135.413 167.2 135.731 167.2C135.939 167.2 136.528 166.747 137.042 166.192C137.556 165.638 138.525 165.075 139.196 164.941C139.867 164.807 140.514 164.54 140.632 164.348C140.914 163.891 143.889 163.897 144.172 164.355C144.293 164.55 145.023 164.828 145.796 164.973C146.568 165.118 147.2 165.408 147.2 165.618C147.2 165.828 147.457 166 147.771 166C148.263 166 148.826 166.584 150.296 168.622C150.463 168.854 150.782 169.365 151.004 169.758C151.539 170.706 151.085 176.905 150.465 177.112C150.209 177.197 150 177.494 150 177.772C150 178.051 148.945 179.251 147.656 180.439C146.367 181.628 144.702 183.168 143.956 183.861C142.045 185.639 138.8 189.466 138.8 189.943C138.8 190.162 138.395 190.677 137.9 191.087C136.927 191.892 136.223 192.881 135.609 194.3C135.395 194.795 135.055 195.2 134.853 195.2C134.652 195.2 134.363 195.695 134.212 196.3C134.061 196.905 133.698 197.67 133.405 198C132.559 198.953 130.888 202.287 130.601 203.595C130.457 204.253 130.172 204.894 129.969 205.019C129.766 205.145 129.599 205.552 129.598 205.924C129.596 206.296 129.344 207.08 129.038 207.667C128.732 208.254 128.357 209.468 128.206 210.365C128.054 211.262 127.778 212.09 127.592 212.205C127.406 212.32 127.128 213.851 126.975 215.607C126.822 217.363 126.54 218.8 126.348 218.8C125.827 218.8 125.905 233.094 126.428 233.417C126.663 233.562 126.805 234.375 126.744 235.224C126.683 236.072 126.76 236.894 126.916 237.05C127.072 237.206 127.2 237.731 127.2 238.218C127.2 239.18 128.1 240.167 128.558 239.708C128.715 239.552 129.463 239.477 130.221 239.543C130.98 239.608 131.6 239.488 131.6 239.276C131.6 239.064 132.44 238.765 133.467 238.611C134.493 238.457 135.789 238.033 136.345 237.668C136.901 237.304 137.681 237.061 138.078 237.128C138.475 237.195 138.8 237.073 138.8 236.857C138.8 236.641 139.34 236.345 140 236.2C140.66 236.055 141.2 235.79 141.2 235.612C141.2 235.433 141.684 235.165 142.276 235.017C142.868 234.868 143.678 234.371 144.076 233.912C144.474 233.453 144.8 233.227 144.8 233.409C144.8 233.591 145.25 233.317 145.8 232.8C146.35 232.283 146.8 232.01 146.8 232.192C146.8 232.375 147.211 232.046 147.713 231.462C148.215 230.878 148.807 230.4 149.029 230.4C149.252 230.4 150.228 229.59 151.2 228.6C152.172 227.61 153.184 226.8 153.45 226.8C153.716 226.8 153.997 226.608 154.075 226.374C154.153 226.14 154.978 225.846 155.909 225.722C156.839 225.597 157.6 225.338 157.6 225.147C157.6 224.956 157.96 224.8 158.4 224.8C158.84 224.8 159.2 224.956 159.2 225.147C159.2 225.338 159.961 225.597 160.891 225.722C161.822 225.846 162.647 226.14 162.725 226.374C162.803 226.608 163.09 226.8 163.364 226.8C166.643 226.8 168.601 237.047 165.726 239.16C165.547 239.292 165.208 239.748 164.973 240.173C164.739 240.599 164.229 241.139 163.842 241.373C163.454 241.608 162.369 242.52 161.429 243.4C159.517 245.191 156.088 247.855 154.708 248.623C152.105 250.072 143.266 254.351 142.4 254.583C141.85 254.73 141.04 255.003 140.6 255.189C138.799 255.951 138.157 256.115 137.3 256.031C136.805 255.982 136.4 256.136 136.4 256.371C136.4 256.607 135.871 256.8 135.224 256.8C134.577 256.8 133.947 256.963 133.824 257.162C133.701 257.361 132.88 257.427 132 257.309C130.949 257.168 130.4 257.25 130.4 257.547C130.4 257.841 129.417 258 127.6 258C126 258 124.8 258.171 124.8 258.4C124.8 258.646 122.808 258.8 119.624 258.8C116.604 258.8 114.344 258.633 114.2 258.4C114.064 258.18 112.804 258 111.4 258C109.996 258 108.728 257.808 108.583 257.572C108.438 257.337 107.662 257.181 106.859 257.226C106.057 257.27 105.13 257.206 104.8 257.083C103.988 256.78 101.646 256.358 100.3 256.271C99.6949 256.232 99.1999 256.065 99.1999 255.9C99.1999 255.735 98.6709 255.6 98.0239 255.6C97.3769 255.6 96.7419 255.43 96.6139 255.223C96.4859 255.016 95.5309 254.723 94.4909 254.573C93.4509 254.422 92.4199 254.167 92.1999 254.005C91.9799 253.843 91.2599 253.589 90.5999 253.441C89.5189 253.199 87.9719 252.569 85.8529 251.508C84.4389 250.801 84.3739 251.652 84.4879 269.432L84.5999 287L92.5399 294.9L100.479 302.8L118.94 302.81C129.093 302.816 140.19 303.002 143.6 303.223C147.296 303.463 155.898 303.517 164.9 303.356L180.001 303.086L180.848 301.243C181.314 300.229 181.848 299.098 182.034 298.728C182.22 298.358 182.494 296.868 182.642 295.417C182.791 293.965 183.067 292.682 183.256 292.565C183.706 292.287 183.705 277.2 183.255 277.2C183.066 277.2 182.784 275.81 182.63 274.111C182.476 272.412 182.139 270.768 181.881 270.456C180.327 268.584 181.53 262.858 183.994 260.394C186.372 258.016 192.488 256.644 193.521 258.257C193.675 258.496 194.25 258.83 194.8 258.999C196.009 259.369 197.943 261.432 198.258 262.688C198.384 263.19 198.626 263.6 198.797 263.6C198.968 263.6 199.237 264.635 199.395 265.9C199.552 267.165 199.832 268.294 200.016 268.408C200.2 268.523 200.478 270.458 200.633 272.708C200.788 274.959 201.069 276.8 201.257 276.8C201.751 276.8 201.695 292.694 201.2 293C200.98 293.136 200.8 294.126 200.8 295.2C200.8 296.274 200.65 297.245 200.467 297.359C200.283 297.472 200.211 298.091 200.305 298.735C200.4 299.379 200.28 300.027 200.038 300.176C197.945 301.47 201.019 304.367 203.23 303.184C203.625 302.973 205.309 302.8 206.974 302.8C208.638 302.8 210 302.647 210 302.46C210 302.273 211.646 302.003 213.659 301.86C215.671 301.717 217.516 301.44 217.759 301.245C218.001 301.049 219.325 300.761 220.701 300.605C222.076 300.449 223.291 300.176 223.401 299.998C223.511 299.82 224.546 299.548 225.7 299.393C226.855 299.237 227.98 298.971 228.2 298.801C228.42 298.631 229.23 298.361 230 298.2C230.77 298.039 231.58 297.769 231.8 297.6C232.02 297.431 232.83 297.161 233.6 297C234.37 296.839 235.18 296.569 235.4 296.4C235.62 296.231 236.385 295.967 237.1 295.814C237.815 295.662 238.4 295.371 238.4 295.168C238.4 294.966 238.761 294.8 239.201 294.8C239.642 294.8 240.675 294.44 241.496 294C242.316 293.56 243.306 293.2 243.694 293.2C244.082 293.2 244.4 293.034 244.4 292.832C244.4 292.629 244.94 292.345 245.6 292.2C246.26 292.055 246.8 291.771 246.8 291.568C246.8 291.366 247.07 291.2 247.4 291.2C247.833 291.2 248 290.756 248 289.6C248 288.72 247.831 288 247.625 288C247.419 288 247.353 287.37 247.477 286.6C247.625 285.691 247.546 285.2 247.252 285.2C247.004 285.2 246.8 284.671 246.8 284.024C246.8 283.377 246.644 282.751 246.454 282.633C246.263 282.515 246.19 281.986 246.291 281.456C246.393 280.927 246.278 280.372 246.038 280.223C245.797 280.075 245.6 279.603 245.6 279.176C245.6 278.749 245.437 278.4 245.237 278.4C245.038 278.4 244.969 278.04 245.084 277.6C245.199 277.16 245.107 276.8 244.878 276.8C244.65 276.8 244.341 276.241 244.191 275.558C243.892 274.199 242.025 270.347 241.475 269.955C241.286 269.821 241.142 269.641 241.155 269.555C241.235 269.007 240.642 267.6 240.33 267.6C240.122 267.6 240.051 267.44 240.172 267.245C240.293 267.05 240.123 266.668 239.796 266.396C239.468 266.124 239.2 265.716 239.2 265.489C239.2 265.261 238.75 264.486 238.2 263.764C237.65 263.043 237.2 262.303 237.2 262.12C237.2 261.936 236.39 260.86 235.4 259.729C234.41 258.597 233.6 257.541 233.6 257.381C233.6 257.222 233.15 256.675 232.6 256.165C232.05 255.655 231.6 255.082 231.6 254.892C231.6 254.517 220.202 243.313 217.963 241.488C217.214 240.877 215.858 239.752 214.952 238.988C214.045 238.225 213.181 237.6 213.031 237.6C212.421 237.6 209.949 234.523 209.731 233.492C209.602 232.882 209.34 232.286 209.148 232.168C208.502 231.769 208.784 228.182 209.588 226.575C212.957 219.842 220.578 218.984 225.762 224.752C226.181 225.218 226.732 225.6 226.987 225.6C227.241 225.6 227.849 226.14 228.337 226.8C228.825 227.46 229.451 228 229.729 228C230.006 228 231.028 228.81 232 229.8C232.972 230.79 233.935 231.6 234.14 231.6C234.345 231.6 236.108 233.256 238.056 235.28C240.511 237.83 241.727 238.833 242.015 238.545C242.551 238.009 243.952 235.606 244.258 234.7C244.387 234.315 244.652 234 244.847 234C245.041 234 245.2 233.795 245.2 233.544C245.2 233.293 245.544 232.348 245.963 231.444C247.56 228.007 248 226.855 248 226.12C248 225.702 248.185 225.175 248.411 224.949C248.636 224.724 248.931 223.563 249.066 222.369C249.2 221.176 249.448 220.02 249.617 219.8C250.019 219.278 250.01 205.522 249.607 205C249.438 204.78 249.174 203.568 249.021 202.306C248.869 201.045 248.577 199.909 248.372 199.783C246.418 198.575 249.858 189.6 252.275 189.6C252.564 189.6 252.8 189.441 252.8 189.247C252.8 188.478 259.018 187.781 259.462 188.5C259.564 188.665 259.917 188.8 260.248 188.8C260.802 188.8 264.195 191.146 264.298 191.6C264.323 191.71 264.549 192.34 264.801 193C265.052 193.66 265.468 194.875 265.726 195.7C265.984 196.525 266.351 197.2 266.542 197.2C266.733 197.2 266.773 197.816 266.632 198.569C266.483 199.363 266.549 200.045 266.788 200.192C267.014 200.333 267.2 201.326 267.2 202.4C267.2 203.474 267.335 204.436 267.5 204.538C267.841 204.749 267.818 219.881 267.475 220.8C267.19 221.564 266.779 224.665 266.773 226.1C266.77 226.705 266.595 227.2 266.384 227.2C266.173 227.2 266 227.729 266 228.376C266 229.023 265.815 229.667 265.589 229.807C265.364 229.946 265.213 230.272 265.255 230.53C265.353 231.141 264.779 233.286 264.379 233.8C264.208 234.02 264.064 234.29 264.06 234.4C264.055 234.51 263.933 234.96 263.787 235.4C263.408 236.549 263.304 236.954 263.285 237.355C263.276 237.551 263.106 237.821 262.907 237.955C262.485 238.241 259.492 244.242 259.588 244.611C259.623 244.748 259.281 245.183 258.826 245.577C258.372 245.971 258 246.415 258 246.563C258 246.927 256.276 249.366 255.9 249.533C255.735 249.607 255.6 249.888 255.6 250.158C255.6 250.429 255.06 251.168 254.4 251.8C253.095 253.051 252.883 254.039 253.763 254.769C254.073 255.026 254.621 255.859 254.982 256.618C255.343 257.378 255.795 258 255.987 258C256.179 258 256.455 258.54 256.6 259.2C256.745 259.86 257.029 260.4 257.232 260.4C257.434 260.4 257.6 260.603 257.6 260.851C257.6 261.099 258.156 262.494 258.835 263.951C260.605 267.749 261.579 270.012 261.783 270.8C261.811 270.91 262.087 271.72 262.396 272.6C262.705 273.48 262.978 274.38 263.002 274.6C263.059 275.117 263.553 276.403 264.048 277.325C264.263 277.724 264.332 278.384 264.203 278.791C263.684 280.426 265.818 279.907 267.981 277.872C272.558 273.568 281.952 264.218 281.826 264.093C281.74 264.006 282.373 263.299 283.234 262.521C284.096 261.743 284.8 260.871 284.8 260.582C284.8 260.294 285.25 259.704 285.8 259.271C286.35 258.839 286.8 258.345 286.8 258.174C286.8 258.003 287.099 257.533 287.464 257.129C288.237 256.275 289.079 254.899 289.44 253.9C289.579 253.515 289.857 253.2 290.057 253.2C290.256 253.2 290.595 252.795 290.809 252.3C291.209 251.374 292.046 249.954 292.4 249.6C292.761 249.239 293.55 247.845 295.117 244.8C295.966 243.15 296.864 241.44 297.113 241C298.244 238.999 300.4 234.052 300.4 233.458C300.4 233.096 300.566 232.8 300.768 232.8C300.971 232.8 301.262 232.215 301.414 231.5C301.567 230.785 301.831 230.02 302 229.8C302.169 229.58 302.439 228.77 302.6 228C302.761 227.23 303.031 226.42 303.2 226.2C303.369 225.98 303.639 225.17 303.8 224.4C303.961 223.63 304.231 222.82 304.401 222.6C304.571 222.38 304.837 221.255 304.993 220.1C305.148 218.946 305.424 217.909 305.606 217.796C305.788 217.684 306.062 216.423 306.215 214.996C306.368 213.568 306.652 212.4 306.847 212.4C307.041 212.4 307.2 211.68 307.2 210.8C307.2 209.908 307.394 209.2 307.638 209.2C307.933 209.2 307.985 208.549 307.8 207.2C307.615 205.851 307.667 205.2 307.962 205.2C308.245 205.2 308.4 203.994 308.4 201.8C308.4 199.8 308.565 198.4 308.8 198.4C309.052 198.4 309.2 195.741 309.2 191.224C309.2 186.871 309.043 183.95 308.8 183.8C308.58 183.664 308.4 182.123 308.4 180.376C308.4 178.344 308.242 177.2 307.962 177.2C307.669 177.2 307.613 176.557 307.794 175.243C307.966 173.993 307.907 173.19 307.632 173.02C307.394 172.873 307.2 172.133 307.2 171.376C307.2 170.619 307.043 170 306.852 170C306.66 170 306.379 168.74 306.227 167.2C306.076 165.66 305.8 164.4 305.615 164.4C305.43 164.4 305.153 163.32 305 162C304.847 160.68 304.57 159.6 304.385 159.6C304.2 159.6 303.928 158.79 303.779 157.8C303.631 156.81 303.361 156 303.179 156C302.998 156 302.728 155.19 302.579 154.2C302.431 153.21 302.164 152.4 301.986 152.4C301.809 152.4 301.536 151.815 301.381 151.1C301.225 150.385 300.851 149.445 300.549 149.011C300.247 148.577 300 147.812 300 147.311C300 146.81 299.834 146.4 299.632 146.4C299.429 146.4 299.145 145.86 299 145.2C298.855 144.54 298.585 144 298.4 144C298.215 144 297.945 143.46 297.8 142.8C297.655 142.14 297.385 141.6 297.2 141.6C297.015 141.6 296.745 141.06 296.6 140.4C296.455 139.74 296.185 139.2 296 139.2C295.815 139.2 295.545 138.66 295.4 138C295.255 137.34 294.992 136.8 294.815 136.8C294.638 136.8 294.383 136.485 294.248 136.1C294.113 135.715 293.56 134.68 293.02 133.8C292.48 132.92 291.908 131.93 291.748 131.6C291.589 131.27 291.355 130.91 291.229 130.8C290.796 130.422 289.2 128.032 289.2 127.762C289.2 127.613 288.75 127.075 288.2 126.565C287.65 126.055 287.2 125.478 287.2 125.281C287.2 125.085 286.84 124.598 286.4 124.2C285.96 123.802 285.6 123.312 285.6 123.112C285.6 122.913 285.162 122.265 284.627 121.674C284.092 121.084 282.47 119.25 281.023 117.6C276.653 112.617 271.848 108.017 266.8 103.984C263.896 101.665 263.258 101.2 262.976 101.2C262.806 101.2 262.382 100.931 262.034 100.602C260.68 99.3249 258.8 97.9429 258.8 98.2259C258.8 98.3889 258.485 98.1789 258.1 97.7579C257.715 97.3379 256.86 96.7259 256.2 96.3979C255.54 96.0699 254.91 95.7109 254.8 95.6009C254.415 95.2139 252.975 94.4149 250 92.9369C248.35 92.1169 246.94 91.3009 246.867 91.1229C246.793 90.9449 246.543 90.7999 246.31 90.7999C245.732 90.7999 242.262 89.0859 241.94 88.6419C241.798 88.4449 241.426 88.3809 241.116 88.4999C240.805 88.6199 240.112 88.3799 239.575 87.9669C239.039 87.5549 238.33 87.2129 238 87.2059C237.67 87.1999 236.917 86.9429 236.327 86.6349C235.737 86.3269 234.657 85.9479 233.927 85.7919C233.197 85.6349 232.394 85.3419 232.142 85.1399C231.89 84.9369 231.53 84.8069 231.342 84.8489C230.956 84.9369 229.757 84.5329 228.675 83.9519C228.276 83.7369 227.601 83.6729 227.175 83.8079C226.739 83.9459 226.4 83.8669 226.4 83.6269C226.4 83.3919 225.961 83.1999 225.424 83.1999C224.887 83.1999 224.347 83.0379 224.224 82.8389C224.102 82.6409 222.921 82.3529 221.6 82.1999C220.279 82.0469 219.11 81.7779 219.002 81.6019C218.893 81.4269 217.318 81.1549 215.502 80.9979C213.686 80.8399 211.973 80.5279 211.696 80.3029C211.178 79.8839 190.337 79.5459 185.017 79.8699Z" fill="#FA8B23"/>
<path fill-rule="evenodd" clip-rule="evenodd" d="M6.80009 141.6C6.80009 281.542 6.80909 283.2 7.57709 283.2C8.06309 283.2 12.9321 278.619 20.5771 270.968L32.8001 258.735V142.168V25.6H120.6C169.259 25.6 208.4 25.753 208.4 25.944C208.4 26.133 210.783 26.417 213.696 26.575C216.609 26.733 219.084 27.002 219.196 27.172C219.308 27.341 220.924 27.605 222.787 27.757C224.649 27.909 226.269 28.179 226.387 28.357C226.504 28.535 227.855 28.807 229.389 28.961C230.923 29.115 232.275 29.398 232.394 29.59C232.512 29.782 233.732 30.066 235.105 30.221C236.477 30.376 237.6 30.642 237.6 30.812C237.6 30.982 238.68 31.247 240 31.4C241.32 31.553 242.4 31.83 242.4 32.015C242.4 32.2 243.21 32.472 244.2 32.621C245.19 32.769 246 33.039 246 33.221C246 33.402 246.81 33.672 247.8 33.821C248.79 33.969 249.6 34.239 249.6 34.421C249.6 34.602 250.41 34.872 251.4 35.021C252.39 35.169 253.2 35.43 253.2 35.601C253.2 35.771 253.83 36.029 254.6 36.174C255.37 36.318 256 36.585 256 36.767C256 36.949 256.72 37.213 257.6 37.354C258.48 37.494 259.2 37.767 259.2 37.96C259.2 38.153 259.83 38.429 260.6 38.574C261.37 38.718 262 38.994 262 39.186C262 39.379 262.54 39.655 263.2 39.8C263.86 39.945 264.4 40.227 264.4 40.427C264.4 40.627 265.12 40.906 266 41.046C266.88 41.187 267.6 41.445 267.6 41.619C267.6 41.794 268.14 42.055 268.8 42.2C269.46 42.345 270 42.615 270 42.8C270 42.985 270.54 43.255 271.2 43.4C271.86 43.545 272.4 43.826 272.4 44.024C272.4 44.222 272.85 44.498 273.4 44.636C273.95 44.774 274.4 45.033 274.4 45.212C274.4 45.39 274.94 45.655 275.6 45.8C276.26 45.945 276.8 46.229 276.8 46.432C276.8 46.634 277.076 46.8 277.413 46.8C277.749 46.8 278.124 47.059 278.246 47.376C278.367 47.692 278.992 48.066 279.633 48.207C280.275 48.348 280.8 48.626 280.8 48.824C280.8 49.022 281.25 49.298 281.8 49.436C282.35 49.574 282.8 49.847 282.8 50.043C282.8 50.24 283.076 50.4 283.413 50.4C283.749 50.4 284.122 50.654 284.241 50.964C284.361 51.274 284.895 51.637 285.429 51.772C285.963 51.906 286.4 52.192 286.4 52.408C286.4 52.623 286.676 52.8 287.013 52.8C287.349 52.8 287.722 53.054 287.841 53.364C287.961 53.674 288.495 54.037 289.029 54.172C289.563 54.306 290 54.592 290 54.808C290 55.023 290.23 55.2 290.511 55.2C290.792 55.2 291.33 55.56 291.707 56C292.084 56.44 292.664 56.8 292.996 56.8C293.328 56.8 293.6 56.986 293.6 57.213C293.6 57.439 293.915 57.744 294.3 57.889C294.685 58.035 295.509 58.659 296.131 59.277C296.753 59.895 297.421 60.4 297.615 60.4C297.81 60.4 298.741 61.134 299.685 62.031C303.421 65.585 303.899 66 304.251 66C304.745 66 320 81.123 320 81.613C320 81.826 320.72 82.7 321.6 83.554C322.48 84.408 323.2 85.271 323.2 85.472C323.2 85.673 323.732 86.279 324.383 86.819C325.034 87.358 325.574 88.011 325.583 88.269C325.592 88.527 326.105 89.247 326.723 89.869C327.341 90.491 327.965 91.315 328.111 91.7C328.256 92.085 328.561 92.4 328.787 92.4C329.014 92.4 329.2 92.672 329.2 93.004C329.2 93.336 329.56 93.916 330 94.293C330.44 94.67 330.8 95.208 330.8 95.489C330.8 95.77 330.977 96 331.192 96C331.408 96 331.694 96.437 331.828 96.971C331.963 97.505 332.326 98.039 332.636 98.159C332.946 98.278 333.2 98.651 333.2 98.987C333.2 99.324 333.377 99.6 333.592 99.6C333.808 99.6 334.094 100.037 334.228 100.571C334.363 101.105 334.726 101.639 335.036 101.759C335.346 101.878 335.6 102.251 335.6 102.587C335.6 102.924 335.777 103.2 335.992 103.2C336.208 103.2 336.498 103.65 336.636 104.2C336.774 104.75 337.033 105.2 337.212 105.2C337.39 105.2 337.655 105.74 337.8 106.4C337.945 107.06 338.226 107.6 338.424 107.6C338.622 107.6 338.898 108.05 339.036 108.6C339.174 109.15 339.433 109.6 339.612 109.6C339.79 109.6 340.055 110.14 340.2 110.8C340.345 111.46 340.629 112 340.832 112C341.034 112 341.2 112.276 341.2 112.613C341.2 112.949 341.459 113.324 341.776 113.446C342.092 113.567 342.466 114.192 342.607 114.833C342.748 115.475 343.015 116 343.2 116C343.385 116 343.655 116.54 343.8 117.2C343.945 117.86 344.229 118.4 344.432 118.4C344.634 118.4 344.8 118.85 344.8 119.4C344.8 119.95 344.966 120.4 345.168 120.4C345.371 120.4 345.655 120.94 345.8 121.6C345.945 122.26 346.215 122.8 346.4 122.8C346.585 122.8 346.855 123.34 347 124C347.145 124.66 347.409 125.2 347.587 125.2C347.765 125.2 348.029 125.83 348.174 126.6C348.318 127.37 348.585 128 348.767 128C348.949 128 349.213 128.72 349.354 129.6C349.494 130.48 349.776 131.2 349.98 131.2C350.184 131.2 350.472 132.01 350.621 133C350.769 133.99 351.039 134.8 351.221 134.8C351.402 134.8 351.672 135.61 351.821 136.6C351.969 137.59 352.235 138.4 352.41 138.4C352.586 138.4 352.858 139.165 353.014 140.1C353.17 141.035 353.461 141.904 353.66 142.03C353.858 142.157 354.131 143.192 354.266 144.33C354.401 145.469 354.66 146.4 354.842 146.4C355.024 146.4 355.292 147.3 355.438 148.4C355.584 149.5 355.837 150.4 356 150.4C356.163 150.4 356.421 151.66 356.573 153.2C356.724 154.74 357.002 156 357.19 156C357.378 156 357.661 157.395 357.818 159.1C357.976 160.805 358.247 162.292 358.421 162.404C358.595 162.517 358.867 164.407 359.026 166.604C359.184 168.802 359.513 170.728 359.757 170.885C360.392 171.294 360.383 207.114 359.748 207.515C359.494 207.675 359.168 209.599 359.005 211.9C358.845 214.155 358.574 216 358.404 216C358.234 216 357.967 217.53 357.811 219.4C357.656 221.27 357.382 222.8 357.203 222.8C357.025 222.8 356.753 223.88 356.6 225.2C356.447 226.52 356.177 227.6 356 227.6C355.823 227.6 355.553 228.68 355.4 230C355.247 231.32 354.98 232.4 354.807 232.4C354.634 232.4 354.368 233.39 354.217 234.6C354.066 235.81 353.786 236.8 353.596 236.8C353.405 236.8 353.128 237.61 352.979 238.6C352.831 239.59 352.561 240.4 352.379 240.4C352.198 240.4 351.928 241.21 351.779 242.2C351.631 243.19 351.361 244 351.179 244C350.998 244 350.728 244.81 350.579 245.8C350.431 246.79 350.158 247.6 349.973 247.6C349.788 247.6 349.518 248.23 349.374 249C349.229 249.77 348.965 250.4 348.787 250.4C348.609 250.4 348.345 250.94 348.2 251.6C348.055 252.26 347.794 252.8 347.619 252.8C347.445 252.8 347.187 253.52 347.046 254.4C346.906 255.28 346.627 256 346.427 256C346.227 256 345.945 256.54 345.8 257.2C345.655 257.86 345.371 258.4 345.168 258.4C344.966 258.4 344.8 258.645 344.8 258.944C344.8 259.563 342.46 264.094 341.979 264.404C341.806 264.516 341.54 265.101 341.388 265.704C341.237 266.307 340.967 266.8 340.788 266.8C340.61 266.8 340.345 267.34 340.2 268C340.055 268.66 339.79 269.2 339.612 269.2C339.433 269.2 339.174 269.65 339.036 270.2C338.898 270.75 338.622 271.2 338.424 271.2C338.226 271.2 337.948 271.725 337.807 272.367C337.666 273.008 337.292 273.633 336.976 273.754C336.659 273.876 336.4 274.251 336.4 274.587C336.4 274.924 336.24 275.2 336.043 275.2C335.847 275.2 335.574 275.65 335.436 276.2C335.298 276.75 335.008 277.2 334.792 277.2C334.577 277.2 334.4 277.476 334.4 277.813C334.4 278.149 334.146 278.522 333.836 278.641C333.526 278.761 333.163 279.295 333.028 279.829C332.894 280.363 332.608 280.8 332.392 280.8C332.177 280.8 332 281.076 332 281.413C332 281.749 331.73 282.129 331.4 282.255C331.07 282.382 330.8 282.738 330.8 283.047C330.8 283.355 330.44 283.916 330 284.293C329.56 284.67 329.2 285.142 329.2 285.343C329.2 285.544 328.771 286.106 328.247 286.592C327.723 287.078 327.176 287.847 327.032 288.301C326.887 288.755 326.506 289.227 326.185 289.35C325.863 289.474 325.6 289.774 325.6 290.018C325.6 290.262 325.06 291.002 324.4 291.662C323.74 292.322 323.2 293.031 323.2 293.237C323.2 293.444 322.39 294.39 321.4 295.338C320.41 296.287 319.6 297.205 319.6 297.378C319.6 297.783 305.295 312 304.887 312C304.718 312 303.818 312.81 302.886 313.8C301.955 314.79 300.969 315.608 300.696 315.617C300.423 315.626 299.758 316.166 299.219 316.817C298.679 317.468 298.07 318 297.865 318C297.66 318 297.094 318.429 296.608 318.953C296.122 319.477 295.337 320.03 294.862 320.18C294.388 320.331 294 320.627 294 320.84C294 321.052 293.685 321.341 293.3 321.483C292.915 321.624 292.223 322.138 291.762 322.623C291.302 323.109 290.537 323.63 290.062 323.78C289.588 323.931 289.2 324.222 289.2 324.427C289.2 324.632 288.924 324.8 288.587 324.8C288.251 324.8 287.878 325.054 287.759 325.364C287.639 325.674 287.105 326.037 286.571 326.172C286.037 326.306 285.6 326.592 285.6 326.808C285.6 327.023 285.324 327.2 284.987 327.2C284.651 327.2 284.276 327.459 284.154 327.776C284.033 328.092 283.408 328.466 282.767 328.607C282.125 328.748 281.6 329.026 281.6 329.224C281.6 329.422 281.15 329.698 280.6 329.836C280.05 329.974 279.6 330.233 279.6 330.412C279.6 330.59 279.075 330.852 278.433 330.993C277.792 331.134 277.167 331.508 277.046 331.824C276.924 332.141 276.549 332.4 276.213 332.4C275.876 332.4 275.6 332.566 275.6 332.768C275.6 332.971 275.06 333.255 274.4 333.4C273.74 333.545 273.2 333.809 273.2 333.987C273.2 334.165 272.57 334.429 271.8 334.574C271.03 334.718 270.4 334.994 270.4 335.186C270.4 335.379 269.86 335.655 269.2 335.8C268.54 335.945 268 336.215 268 336.4C268 336.585 267.46 336.855 266.8 337C266.14 337.145 265.6 337.415 265.6 337.6C265.6 337.785 265.06 338.055 264.4 338.2C263.74 338.345 263.2 338.621 263.2 338.814C263.2 339.006 262.57 339.282 261.8 339.426C261.03 339.571 260.4 339.847 260.4 340.04C260.4 340.233 259.68 340.506 258.8 340.646C257.92 340.787 257.2 341.051 257.2 341.233C257.2 341.415 256.57 341.682 255.8 341.826C255.03 341.971 254.4 342.247 254.4 342.44C254.4 342.633 253.68 342.906 252.8 343.046C251.92 343.187 251.2 343.448 251.2 343.627C251.2 343.805 250.39 344.072 249.4 344.221C248.41 344.369 247.6 344.639 247.6 344.821C247.6 345.002 246.79 345.272 245.8 345.421C244.81 345.569 244 345.827 244 345.994C244 346.161 243.1 346.416 242 346.562C240.9 346.708 240 346.984 240 347.175C240 347.365 238.92 347.647 237.599 347.8C236.279 347.953 235.107 348.227 234.995 348.408C234.883 348.589 233.623 348.862 232.196 349.015C230.768 349.168 229.6 349.433 229.6 349.605C229.6 349.776 228.115 350.047 226.3 350.206C224.485 350.365 222.906 350.643 222.792 350.823C222.677 351.003 220.697 351.278 218.392 351.434C216.086 351.59 214.072 351.916 213.915 352.158C213.71 352.475 200.43 352.635 166.936 352.726L120.243 352.851L107.922 365.202C101.145 371.994 95.6001 377.846 95.6001 378.206C95.6001 379.024 213.385 378.977 213.915 378.159C214.078 377.906 216.246 377.598 218.99 377.437C221.624 377.283 223.874 377.01 223.99 376.83C224.105 376.65 225.955 376.373 228.1 376.214C230.245 376.055 232 375.78 232 375.603C232 375.426 233.26 375.155 234.8 375C236.34 374.845 237.6 374.578 237.6 374.406C237.6 374.234 238.77 373.968 240.2 373.815C241.63 373.662 242.8 373.388 242.8 373.207C242.8 373.027 243.88 372.753 245.2 372.6C246.52 372.447 247.6 372.172 247.6 371.99C247.6 371.807 248.59 371.534 249.8 371.383C251.01 371.232 252 370.96 252 370.778C252 370.597 252.81 370.328 253.8 370.179C254.79 370.031 255.6 369.761 255.6 369.579C255.6 369.398 256.41 369.128 257.4 368.979C258.39 368.831 259.2 368.561 259.2 368.379C259.2 368.198 260.01 367.928 261 367.779C261.99 367.631 262.8 367.358 262.8 367.173C262.8 366.988 263.43 366.718 264.2 366.574C264.97 366.429 265.6 366.174 265.6 366.007C265.6 365.839 266.32 365.587 267.2 365.446C268.08 365.306 268.8 365.021 268.8 364.813C268.8 364.606 269.43 364.318 270.2 364.174C270.97 364.029 271.6 363.771 271.6 363.6C271.6 363.429 272.23 363.171 273 363.026C273.77 362.882 274.4 362.612 274.4 362.426C274.4 362.241 275.03 361.971 275.8 361.826C276.57 361.682 277.2 361.406 277.2 361.214C277.2 361.021 277.74 360.745 278.4 360.6C279.06 360.455 279.6 360.185 279.6 360C279.6 359.815 280.14 359.545 280.8 359.4C281.46 359.255 282 358.985 282 358.8C282 358.615 282.54 358.345 283.2 358.2C283.86 358.055 284.4 357.785 284.4 357.6C284.4 357.415 284.94 357.145 285.6 357C286.26 356.855 286.8 356.59 286.8 356.412C286.8 356.233 287.25 355.974 287.8 355.836C288.35 355.698 288.8 355.408 288.8 355.192C288.8 354.977 289.07 354.8 289.4 354.8C289.73 354.8 290 354.634 290 354.432C290 354.229 290.525 353.948 291.167 353.807C291.808 353.666 292.433 353.292 292.554 352.976C292.676 352.659 293.051 352.4 293.387 352.4C293.724 352.4 294 352.24 294 352.043C294 351.847 294.45 351.574 295 351.436C295.55 351.298 296 351.022 296 350.824C296 350.626 296.525 350.348 297.167 350.207C297.808 350.066 298.433 349.692 298.554 349.376C298.676 349.059 299.051 348.8 299.387 348.8C299.724 348.8 300 348.623 300 348.408C300 348.192 300.437 347.906 300.971 347.772C301.505 347.637 302.039 347.274 302.159 346.964C302.278 346.654 302.651 346.4 302.987 346.4C303.324 346.4 303.6 346.232 303.6 346.027C303.6 345.822 303.988 345.531 304.462 345.38C304.937 345.23 305.702 344.709 306.162 344.223C306.623 343.738 307.315 343.224 307.7 343.083C308.085 342.941 308.4 342.639 308.4 342.413C308.4 342.186 308.766 342 309.213 342C309.659 342 310.126 341.737 310.25 341.415C310.373 341.094 310.855 340.71 311.32 340.562C311.785 340.414 312.618 339.777 313.172 339.147C313.725 338.516 314.332 338 314.52 338C314.708 338 315.402 337.46 316.062 336.8C316.722 336.14 317.431 335.6 317.637 335.6C317.844 335.6 318.79 334.79 319.738 333.8C320.687 332.81 321.597 332 321.762 332C322.124 332 339.2 314.984 339.2 314.622C339.2 314.302 339.834 313.536 341.5 311.841C342.215 311.114 342.8 310.389 342.8 310.229C342.8 310.069 343.34 309.398 344 308.738C344.66 308.078 345.2 307.282 345.2 306.969C345.2 306.656 345.354 306.4 345.542 306.4C346.116 306.4 347.89 304.575 348.168 303.699C348.313 303.245 348.694 302.773 349.015 302.65C349.337 302.526 349.6 302.149 349.6 301.813C349.6 301.476 349.768 301.2 349.973 301.2C350.178 301.2 350.469 300.812 350.62 300.338C350.77 299.863 351.291 299.098 351.777 298.638C352.262 298.177 352.776 297.485 352.917 297.1C353.059 296.715 353.341 296.4 353.544 296.4C353.747 296.4 354.026 295.95 354.164 295.4C354.302 294.85 354.592 294.4 354.808 294.4C355.023 294.4 355.2 294.124 355.2 293.787C355.2 293.451 355.454 293.078 355.764 292.959C356.074 292.839 356.437 292.305 356.572 291.771C356.706 291.237 356.978 290.8 357.176 290.8C357.374 290.8 357.652 290.275 357.793 289.633C357.934 288.992 358.308 288.367 358.624 288.246C358.941 288.124 359.2 287.749 359.2 287.413C359.2 287.076 359.36 286.8 359.557 286.8C359.753 286.8 360.026 286.35 360.164 285.8C360.302 285.25 360.578 284.8 360.776 284.8C360.974 284.8 361.255 284.26 361.4 283.6C361.545 282.94 361.829 282.4 362.032 282.4C362.234 282.4 362.4 282.124 362.4 281.787C362.4 281.451 362.659 281.076 362.976 280.954C363.292 280.833 363.666 280.208 363.807 279.567C363.948 278.925 364.215 278.4 364.4 278.4C364.585 278.4 364.855 277.86 365 277.2C365.145 276.54 365.415 276 365.6 276C365.785 276 366.055 275.46 366.2 274.8C366.345 274.14 366.621 273.6 366.814 273.6C367.006 273.6 367.282 272.97 367.426 272.2C367.571 271.43 367.835 270.8 368.013 270.8C368.191 270.8 368.455 270.26 368.6 269.6C368.745 268.94 369.021 268.4 369.214 268.4C369.406 268.4 369.682 267.77 369.826 267C369.971 266.23 370.235 265.6 370.413 265.6C370.591 265.6 370.855 265.06 371 264.4C371.145 263.74 371.406 263.2 371.581 263.2C371.755 263.2 372.013 262.48 372.154 261.6C372.294 260.72 372.567 260 372.76 260C372.953 260 373.229 259.37 373.374 258.6C373.518 257.83 373.788 257.2 373.973 257.2C374.158 257.2 374.431 256.39 374.579 255.4C374.728 254.41 374.998 253.6 375.179 253.6C375.361 253.6 375.631 252.79 375.779 251.8C375.928 250.81 376.198 250 376.379 250C376.561 250 376.831 249.19 376.979 248.2C377.128 247.21 377.398 246.4 377.579 246.4C377.761 246.4 378.031 245.59 378.179 244.6C378.328 243.61 378.6 242.8 378.785 242.8C378.97 242.8 379.247 241.72 379.4 240.4C379.553 239.08 379.832 238 380.019 238C380.207 238 380.482 236.92 380.632 235.6C380.781 234.28 381.06 233.2 381.252 233.2C381.443 233.2 381.6 232.671 381.6 232.024C381.6 231.377 381.762 230.747 381.959 230.625C382.157 230.503 382.448 229.097 382.607 227.502C382.766 225.906 383.047 224.504 383.231 224.387C383.416 224.269 383.691 222.649 383.843 220.787C383.995 218.924 384.263 217.305 384.438 217.19C384.613 217.074 384.883 214.824 385.037 212.19C385.198 209.446 385.506 207.278 385.759 207.115C386.383 206.711 386.381 172.088 385.757 171.685C385.5 171.52 385.194 169.306 385.028 166.405C384.87 163.658 384.597 161.318 384.422 161.205C384.247 161.092 383.974 159.425 383.816 157.5C383.658 155.575 383.39 154 383.222 154C383.053 154 382.794 152.695 382.646 151.1C382.499 149.505 382.203 148.14 381.989 148.067C381.775 147.993 381.6 147.228 381.6 146.367C381.6 145.505 381.438 144.8 381.239 144.8C381.041 144.8 380.753 143.72 380.6 142.4C380.447 141.08 380.165 140 379.975 140C379.784 140 379.508 139.1 379.362 138C379.216 136.9 378.961 136 378.794 136C378.627 136 378.369 135.19 378.221 134.2C378.072 133.21 377.803 132.4 377.622 132.4C377.44 132.4 377.168 131.41 377.017 130.2C376.866 128.99 376.584 128 376.389 128C376.195 128 375.918 127.37 375.774 126.6C375.629 125.83 375.371 125.2 375.201 125.2C375.03 125.2 374.769 124.39 374.621 123.4C374.472 122.41 374.184 121.6 373.98 121.6C373.776 121.6 373.494 120.88 373.354 120C373.213 119.12 372.949 118.4 372.767 118.4C372.585 118.4 372.318 117.77 372.174 117C372.029 116.23 371.765 115.6 371.587 115.6C371.409 115.6 371.145 115.06 371 114.4C370.855 113.74 370.594 113.2 370.419 113.2C370.245 113.2 369.987 112.48 369.846 111.6C369.706 110.72 369.427 110 369.227 110C369.027 110 368.745 109.46 368.6 108.8C368.455 108.14 368.185 107.6 368 107.6C367.815 107.6 367.545 107.06 367.4 106.4C367.255 105.74 366.985 105.2 366.8 105.2C366.615 105.2 366.345 104.66 366.2 104C366.055 103.34 365.785 102.8 365.6 102.8C365.415 102.8 365.145 102.26 365 101.6C364.855 100.94 364.585 100.4 364.4 100.4C364.215 100.4 363.945 99.86 363.8 99.2C363.655 98.54 363.39 98 363.212 98C363.033 98 362.774 97.55 362.636 97C362.498 96.45 362.222 96 362.024 96C361.826 96 361.545 95.46 361.4 94.8C361.255 94.14 360.971 93.6 360.768 93.6C360.566 93.6 360.4 93.324 360.4 92.987C360.4 92.651 360.141 92.276 359.824 92.154C359.508 92.033 359.134 91.408 358.993 90.767C358.852 90.125 358.574 89.6 358.376 89.6C358.178 89.6 357.906 89.163 357.772 88.629C357.637 88.095 357.274 87.561 356.964 87.441C356.654 87.322 356.4 86.949 356.4 86.613C356.4 86.276 356.223 86 356.008 86C355.792 86 355.506 85.563 355.372 85.029C355.237 84.495 354.874 83.961 354.564 83.841C354.254 83.722 354 83.349 354 83.013C354 82.676 353.823 82.4 353.608 82.4C353.392 82.4 353.102 81.95 352.964 81.4C352.826 80.85 352.547 80.4 352.344 80.4C352.141 80.4 351.859 80.085 351.717 79.7C351.576 79.315 351.062 78.623 350.577 78.162C350.091 77.702 349.57 76.937 349.42 76.462C349.269 75.988 348.973 75.6 348.76 75.6C348.548 75.6 348.259 75.285 348.117 74.9C347.976 74.515 347.441 73.804 346.93 73.319C346.418 72.835 346 72.326 346 72.188C346 72.051 345.46 71.398 344.8 70.738C344.14 70.078 343.6 69.369 343.6 69.163C343.6 68.956 342.79 68.01 341.8 67.062C340.81 66.113 340 65.205 340 65.043C340 64.727 339.111 63.737 335.5 60.027C334.235 58.727 333.2 57.54 333.2 57.389C333.2 57.024 328.968 52.8 328.604 52.8C328.448 52.8 326.8 51.27 324.943 49.4C323.086 47.53 321.408 46 321.215 46C321.021 46 320.053 45.19 319.063 44.2C318.073 43.21 317.109 42.4 316.921 42.4C316.732 42.4 316.125 41.884 315.572 41.253C315.018 40.623 314.185 39.986 313.72 39.838C313.255 39.69 312.773 39.306 312.65 38.985C312.526 38.663 312.215 38.4 311.958 38.4C311.702 38.4 311.075 37.95 310.565 37.4C310.055 36.85 309.4 36.4 309.108 36.4C308.816 36.4 308.27 36.04 307.893 35.6C307.516 35.16 306.955 34.8 306.647 34.8C306.338 34.8 305.982 34.53 305.855 34.2C305.729 33.87 305.349 33.6 305.013 33.6C304.676 33.6 304.4 33.423 304.4 33.208C304.4 32.992 303.963 32.706 303.429 32.572C302.895 32.437 302.361 32.074 302.241 31.764C302.122 31.454 301.749 31.2 301.413 31.2C301.076 31.2 300.8 31.023 300.8 30.808C300.8 30.592 300.363 30.306 299.829 30.172C299.295 30.037 298.761 29.674 298.641 29.364C298.522 29.054 298.149 28.8 297.813 28.8C297.476 28.8 297.2 28.64 297.2 28.443C297.2 28.247 296.75 27.974 296.2 27.836C295.65 27.698 295.2 27.422 295.2 27.224C295.2 27.026 294.675 26.748 294.033 26.607C293.392 26.466 292.767 26.092 292.646 25.776C292.524 25.459 292.149 25.2 291.813 25.2C291.476 25.2 291.2 25.04 291.2 24.843C291.2 24.647 290.75 24.374 290.2 24.236C289.65 24.098 289.2 23.822 289.2 23.624C289.2 23.426 288.66 23.145 288 23C287.34 22.855 286.8 22.585 286.8 22.4C286.8 22.215 286.26 21.945 285.6 21.8C284.94 21.655 284.4 21.411 284.4 21.258C284.4 21.105 283.592 20.624 282.604 20.19C281.616 19.755 280.806 19.279 280.804 19.132C280.802 18.984 280.26 18.745 279.6 18.6C278.94 18.455 278.4 18.185 278.4 18C278.4 17.815 277.86 17.545 277.2 17.4C276.54 17.255 276 16.985 276 16.8C276 16.615 275.448 16.342 274.773 16.194C274.098 16.046 273.063 15.673 272.473 15.365C271.883 15.057 271.175 14.804 270.9 14.802C270.625 14.801 270.4 14.64 270.4 14.445C270.4 14.249 269.77 13.971 269 13.826C268.23 13.682 267.6 13.415 267.6 13.233C267.6 13.051 266.88 12.787 266 12.646C265.12 12.506 264.4 12.224 264.4 12.02C264.4 11.816 263.59 11.528 262.6 11.379C261.61 11.231 260.8 10.961 260.8 10.779C260.8 10.598 259.99 10.328 259 10.179C258.01 10.031 257.2 9.761 257.2 9.579C257.2 9.398 256.39 9.128 255.4 8.979C254.41 8.831 253.6 8.561 253.6 8.379C253.6 8.198 252.79 7.928 251.8 7.779C250.81 7.631 250 7.367 250 7.194C250 7.02 248.92 6.753 247.6 6.6C246.28 6.447 245.2 6.177 245.2 6C245.2 5.823 244.12 5.553 242.8 5.4C241.48 5.247 240.4 4.97 240.4 4.785C240.4 4.6 239.14 4.324 237.6 4.173C236.06 4.021 234.8 3.755 234.8 3.582C234.8 3.41 233.405 3.139 231.7 2.982C229.995 2.824 228.508 2.553 228.396 2.379C228.283 2.205 226.393 1.933 224.196 1.774C221.998 1.616 220.11 1.351 220 1.185C219.361 0.223 197.593 0 104.449 0H6.80009V141.6ZM186.8 51.138C186.8 51.325 184.424 51.597 181.52 51.744C178.616 51.891 176.141 52.162 176.02 52.346C175.899 52.53 174.276 52.805 172.413 52.957C170.551 53.109 168.931 53.382 168.813 53.563C168.696 53.745 167.385 54.022 165.9 54.179C164.415 54.335 163.2 54.609 163.2 54.786C163.2 54.963 162.21 55.232 161 55.383C159.79 55.534 158.8 55.801 158.8 55.977C158.8 56.153 157.9 56.416 156.8 56.562C155.7 56.708 154.8 56.981 154.8 57.168C154.8 57.356 153.99 57.631 153 57.779C152.01 57.928 151.2 58.198 151.2 58.379C151.2 58.561 150.39 58.831 149.4 58.979C148.41 59.128 147.6 59.395 147.6 59.573C147.6 59.752 146.88 60.013 146 60.154C145.12 60.294 144.4 60.567 144.4 60.76C144.4 60.953 143.77 61.229 143 61.374C142.23 61.518 141.6 61.808 141.6 62.018C141.6 62.228 141.33 62.4 141 62.4C140.67 62.4 140.4 62.578 140.4 62.795C140.4 63.013 139.68 63.306 138.8 63.446C137.92 63.587 137.2 63.845 137.2 64.019C137.2 64.194 136.66 64.455 136 64.6C135.34 64.745 134.8 65.015 134.8 65.2C134.8 65.385 134.26 65.655 133.6 65.8C132.94 65.945 132.4 66.215 132.4 66.4C132.4 66.585 131.875 66.852 131.233 66.993C130.592 67.134 129.967 67.508 129.846 67.824C129.724 68.141 129.349 68.4 129.013 68.4C128.676 68.4 128.4 68.56 128.4 68.755C128.4 68.951 127.787 69.226 127.039 69.366C126.29 69.507 125.576 69.887 125.451 70.211C125.327 70.535 124.949 70.8 124.613 70.8C124.276 70.8 124 70.96 124 71.157C124 71.353 123.55 71.626 123 71.764C122.45 71.902 122 72.192 122 72.408C122 72.623 121.724 72.8 121.387 72.8C121.051 72.8 120.678 73.054 120.559 73.364C120.439 73.674 119.869 74.046 119.291 74.192C118.713 74.337 117.855 74.872 117.383 75.381C116.911 75.89 116.137 76.43 115.662 76.58C115.188 76.731 114.8 77.022 114.8 77.227C114.8 77.432 114.524 77.6 114.187 77.6C113.851 77.6 113.474 77.863 113.35 78.185C113.227 78.506 112.755 78.887 112.301 79.032C111.847 79.176 111.078 79.723 110.592 80.247C110.106 80.771 109.567 81.2 109.395 81.2C109.222 81.2 108.469 81.83 107.721 82.6C106.973 83.37 106.191 84 105.983 84C105.775 84 104.551 85.08 103.263 86.4C101.976 87.72 100.79 88.8 100.629 88.8C100.236 88.8 94.4001 94.651 94.4001 95.045C94.4001 95.215 93.3201 96.379 92.0001 97.631C90.6801 98.883 89.6001 100.072 89.6001 100.273C89.6001 100.473 88.8801 101.341 88.0001 102.2C87.1201 103.059 86.4001 104.001 86.4001 104.294C86.4001 104.586 86.1371 104.926 85.8151 105.05C85.4941 105.173 85.1131 105.645 84.9681 106.099C84.8241 106.553 84.2771 107.322 83.7531 107.808C83.2291 108.294 82.8001 108.856 82.8001 109.057C82.8001 109.258 82.4401 109.73 82.0001 110.107C81.5601 110.484 81.2001 111.045 81.2001 111.353C81.2001 111.662 80.9301 112.018 80.6001 112.145C80.2701 112.271 80.0001 112.651 80.0001 112.987C80.0001 113.324 79.8231 113.6 79.6081 113.6C79.3921 113.6 79.1061 114.037 78.9721 114.571C78.8371 115.105 78.4741 115.639 78.1641 115.759C77.8541 115.878 77.6001 116.251 77.6001 116.587C77.6001 116.924 77.4401 117.2 77.2431 117.2C77.0471 117.2 76.7741 117.65 76.6361 118.2C76.4981 118.75 76.2221 119.2 76.0241 119.2C75.8261 119.2 75.5451 119.74 75.4001 120.4C75.2551 121.06 74.9711 121.6 74.7681 121.6C74.5661 121.6 74.4001 121.876 74.4001 122.213C74.4001 122.549 74.1411 122.924 73.8241 123.046C73.5081 123.167 73.1341 123.792 72.9931 124.433C72.8521 125.075 72.5851 125.6 72.4001 125.6C72.2151 125.6 71.9451 126.14 71.8001 126.8C71.6551 127.46 71.3851 128 71.2001 128C71.0151 128 70.7451 128.54 70.6001 129.2C70.4551 129.86 70.1851 130.4 70.0001 130.4C69.8151 130.4 69.5451 130.94 69.4001 131.6C69.2551 132.26 68.9941 132.8 68.8191 132.8C68.6451 132.8 68.3871 133.52 68.2461 134.4C68.1061 135.28 67.8211 136 67.6131 136C67.4061 136 67.1181 136.63 66.9741 137.4C66.8291 138.17 66.5531 138.8 66.3601 138.8C66.1671 138.8 65.8941 139.52 65.7541 140.4C65.6131 141.28 65.3411 142 65.1491 142C64.9571 142 64.7991 142.315 64.7981 142.7C64.7961 143.085 64.5241 143.919 64.1941 144.553C63.8631 145.187 63.4811 146.402 63.3451 147.253C63.2091 148.104 62.9641 148.8 62.8001 148.8C62.6371 148.8 62.3841 149.7 62.2381 150.8C62.0921 151.9 61.8161 152.8 61.6251 152.8C61.4351 152.8 61.1531 153.88 61.0001 155.2C60.8471 156.52 60.5731 157.6 60.3931 157.6C60.2121 157.6 59.9351 158.815 59.7791 160.3C59.6221 161.785 59.3451 163.096 59.1631 163.213C58.9821 163.331 58.7091 164.951 58.5571 166.813C58.4051 168.676 58.1281 170.3 57.9411 170.423C57.7541 170.546 57.4831 173.111 57.3391 176.123C57.1941 179.135 56.9241 181.6 56.7381 181.6C56.5521 181.6 56.4001 199.195 56.4001 220.7L56.3991 259.8L51.9611 259.839C49.2731 259.863 47.4181 260.047 47.2571 260.307C47.1111 260.543 46.4991 260.86 45.8961 261.012C45.2931 261.163 44.8001 261.428 44.8001 261.6C44.8001 261.772 44.3531 262.025 43.8081 262.162C42.6411 262.455 40.1801 264.804 39.8061 265.98C39.6631 266.431 39.3981 266.8 39.2161 266.8C39.0351 266.8 38.7631 267.293 38.6121 267.896C38.4601 268.499 38.1261 269.122 37.8681 269.281C37.2401 269.67 37.2121 280.306 37.8381 280.714C38.0801 280.871 38.4071 281.531 38.5661 282.18C38.7251 282.829 39.2931 283.765 39.8281 284.261C40.3621 284.756 40.8001 285.336 40.8001 285.549C40.8001 285.762 43.7711 288.876 47.4011 292.468C53.9651 298.962 58.4491 303.439 78.8861 323.901C95.3681 340.402 101.337 346.215 102.1 346.507C102.485 346.654 102.8 346.941 102.8 347.144C102.8 347.347 103.293 347.637 103.896 347.788C104.499 347.94 105.122 348.274 105.281 348.532C105.687 349.188 117.513 349.188 117.919 348.532C118.078 348.274 118.701 347.94 119.304 347.788C119.907 347.637 120.4 347.347 120.4 347.144C120.4 346.941 120.715 346.656 121.1 346.511C122.016 346.165 124 344.186 124 343.618C124 343.374 124.254 343.078 124.564 342.959C124.874 342.839 125.248 342.262 125.396 341.675C125.543 341.088 125.85 340.493 126.078 340.352C126.305 340.211 126.587 338.095 126.702 335.648L126.913 331.2H133.657C137.886 331.2 140.4 331.349 140.4 331.6C140.4 331.863 151.2 332 172 332C189.38 332 203.6 331.848 203.6 331.663C203.6 331.477 206.516 331.205 210.079 331.058C213.643 330.911 216.658 330.632 216.779 330.438C216.901 330.244 218.575 329.955 220.5 329.796C222.425 329.636 224 329.37 224 329.204C224 329.039 225.26 328.779 226.8 328.627C228.34 328.476 229.6 328.2 229.6 328.015C229.6 327.83 230.68 327.553 232 327.4C233.32 327.247 234.4 326.98 234.4 326.807C234.4 326.634 235.39 326.368 236.6 326.217C237.81 326.066 238.8 325.786 238.8 325.596C238.8 325.405 239.61 325.128 240.6 324.979C241.59 324.831 242.4 324.561 242.4 324.379C242.4 324.198 243.21 323.928 244.2 323.779C245.19 323.631 246 323.37 246 323.199C246 323.029 246.63 322.771 247.4 322.626C248.17 322.482 248.8 322.215 248.8 322.033C248.8 321.851 249.52 321.587 250.4 321.446C251.28 321.306 252 321.021 252 320.813C252 320.606 252.63 320.318 253.4 320.174C254.17 320.029 254.8 319.765 254.8 319.587C254.8 319.409 255.34 319.145 256 319C256.66 318.855 257.2 318.585 257.2 318.4C257.2 318.215 257.74 317.945 258.4 317.8C259.06 317.655 259.6 317.385 259.6 317.2C259.6 317.015 260.14 316.745 260.8 316.6C261.46 316.455 262 316.185 262 316C262 315.815 262.54 315.545 263.2 315.4C263.86 315.255 264.4 314.99 264.4 314.812C264.4 314.633 264.85 314.374 265.4 314.236C265.95 314.098 266.4 313.808 266.4 313.592C266.4 313.377 266.67 313.2 267 313.2C267.33 313.2 267.6 313.034 267.6 312.832C267.6 312.629 268.125 312.348 268.767 312.207C269.408 312.066 270.033 311.692 270.154 311.376C270.276 311.059 270.651 310.8 270.987 310.8C271.324 310.8 271.6 310.632 271.6 310.427C271.6 310.222 271.997 309.928 272.481 309.774C272.966 309.62 273.609 309.248 273.91 308.947C274.211 308.646 274.695 308.4 274.986 308.4C275.277 308.4 275.618 308.13 275.745 307.8C275.871 307.47 276.251 307.2 276.587 307.2C276.924 307.2 277.2 307.032 277.2 306.827C277.2 306.622 277.588 306.331 278.062 306.18C278.537 306.03 279.322 305.477 279.808 304.953C280.294 304.429 280.902 304 281.158 304C281.415 304 281.726 303.737 281.85 303.415C281.973 303.094 282.455 302.71 282.92 302.562C283.385 302.414 284.218 301.777 284.772 301.147C285.325 300.516 285.932 300 286.121 300C286.309 300 287.273 299.19 288.263 298.2C289.253 297.21 290.219 296.4 290.409 296.4C290.875 296.4 301.2 286.023 301.2 285.555C301.2 285.353 302.01 284.41 303 283.462C303.99 282.513 304.8 281.602 304.8 281.438C304.8 281.273 305.34 280.598 306 279.938C306.66 279.278 307.2 278.579 307.2 278.385C307.2 278.19 307.875 277.324 308.7 276.46C310.637 274.432 311.2 273.716 311.2 273.279C311.2 273.084 311.56 272.598 312 272.2C312.44 271.802 312.8 271.234 312.8 270.938C312.8 270.642 312.977 270.4 313.192 270.4C313.408 270.4 313.694 269.963 313.828 269.429C313.963 268.895 314.326 268.361 314.636 268.241C314.946 268.122 315.2 267.749 315.2 267.413C315.2 267.076 315.36 266.8 315.557 266.8C315.753 266.8 316.026 266.35 316.164 265.8C316.302 265.25 316.578 264.8 316.776 264.8C316.974 264.8 317.252 264.275 317.393 263.633C317.534 262.992 317.908 262.367 318.224 262.246C318.541 262.124 318.8 261.749 318.8 261.413C318.8 261.076 318.966 260.8 319.168 260.8C319.371 260.8 319.655 260.26 319.8 259.6C319.945 258.94 320.21 258.4 320.388 258.4C320.567 258.4 320.826 257.95 320.964 257.4C321.102 256.85 321.378 256.4 321.576 256.4C321.774 256.4 322.055 255.86 322.2 255.2C322.345 254.54 322.621 254 322.814 254C323.006 254 323.282 253.37 323.426 252.6C323.571 251.83 323.835 251.2 324.013 251.2C324.191 251.2 324.455 250.66 324.6 250C324.745 249.34 325.027 248.8 325.227 248.8C325.427 248.8 325.706 248.08 325.846 247.2C325.987 246.32 326.245 245.6 326.419 245.6C326.594 245.6 326.855 245.06 327 244.4C327.145 243.74 327.418 243.2 327.607 243.2C327.796 243.2 328.072 242.39 328.221 241.4C328.369 240.41 328.639 239.6 328.821 239.6C329.002 239.6 329.272 238.79 329.421 237.8C329.569 236.81 329.835 236 330.01 236C330.186 236 330.458 235.235 330.614 234.3C330.77 233.365 331.061 232.496 331.26 232.37C331.458 232.243 331.731 231.208 331.866 230.07C332.001 228.931 332.249 228 332.416 228C332.584 228 332.847 226.92 333 225.6C333.153 224.28 333.423 223.2 333.599 223.2C333.775 223.2 334.049 221.895 334.207 220.3C334.366 218.705 334.64 217.308 334.817 217.196C334.993 217.083 335.267 215.193 335.426 212.996C335.584 210.798 335.913 208.872 336.157 208.715C336.47 208.513 336.6 203.418 336.6 191.4C336.6 179.382 336.47 174.287 336.157 174.085C335.913 173.928 335.584 172.002 335.426 169.804C335.267 167.607 334.993 165.717 334.817 165.604C334.64 165.492 334.366 164.095 334.207 162.5C334.049 160.905 333.775 159.6 333.599 159.6C333.423 159.6 333.153 158.52 333 157.2C332.847 155.88 332.58 154.8 332.407 154.8C332.234 154.8 331.968 153.81 331.817 152.6C331.666 151.39 331.386 150.4 331.196 150.4C331.005 150.4 330.728 149.59 330.579 148.6C330.431 147.61 330.17 146.8 330 146.8C329.83 146.8 329.569 145.99 329.421 145C329.272 144.01 329.002 143.2 328.821 143.2C328.639 143.2 328.369 142.39 328.221 141.4C328.072 140.41 327.784 139.6 327.58 139.6C327.376 139.6 327.094 138.88 326.954 138C326.813 137.12 326.555 136.4 326.381 136.4C326.206 136.4 325.945 135.86 325.8 135.2C325.655 134.54 325.391 134 325.213 134C325.035 134 324.771 133.37 324.626 132.6C324.482 131.83 324.206 131.2 324.014 131.2C323.821 131.2 323.545 130.66 323.4 130C323.255 129.34 322.985 128.8 322.8 128.8C322.615 128.8 322.345 128.26 322.2 127.6C322.055 126.94 321.785 126.4 321.6 126.4C321.415 126.4 321.145 125.86 321 125.2C320.855 124.54 320.574 124 320.376 124C320.178 124 319.902 123.55 319.764 123C319.626 122.45 319.367 122 319.188 122C319.01 122 318.748 121.475 318.607 120.833C318.466 120.192 318.092 119.567 317.776 119.446C317.459 119.324 317.2 118.949 317.2 118.613C317.2 118.276 317.04 118 316.843 118C316.647 118 316.374 117.55 316.236 117C316.098 116.45 315.808 116 315.592 116C315.377 116 315.2 115.724 315.2 115.387C315.2 115.051 314.946 114.678 314.636 114.559C314.326 114.439 313.963 113.905 313.828 113.371C313.694 112.837 313.408 112.4 313.192 112.4C312.977 112.4 312.8 112.124 312.8 111.787C312.8 111.451 312.546 111.078 312.236 110.959C311.926 110.839 311.563 110.305 311.428 109.771C311.294 109.237 311.008 108.8 310.792 108.8C310.577 108.8 310.4 108.555 310.4 108.256C310.4 107.957 309.95 107.374 309.4 106.961C308.85 106.548 308.4 106.023 308.4 105.794C308.4 105.565 308.085 105.08 307.7 104.717C306.71 103.782 306 102.881 306 102.557C306 102.405 305.37 101.669 304.6 100.921C303.83 100.173 303.2 99.402 303.2 99.206C303.2 98.737 289.233 84.8 288.763 84.8C288.563 84.8 287.7 84.08 286.846 83.2C285.992 82.32 285.087 81.6 284.834 81.6C284.582 81.6 284.274 81.337 284.15 81.015C284.027 80.694 283.555 80.313 283.101 80.168C282.647 80.024 281.878 79.477 281.392 78.953C280.906 78.429 280.344 78 280.143 78C279.942 78 279.47 77.64 279.093 77.2C278.716 76.76 278.155 76.4 277.847 76.4C277.538 76.4 277.182 76.13 277.055 75.8C276.929 75.47 276.549 75.2 276.213 75.2C275.876 75.2 275.6 75.023 275.6 74.808C275.6 74.592 275.163 74.306 274.629 74.172C274.095 74.037 273.561 73.674 273.441 73.364C273.322 73.054 272.879 72.8 272.455 72.8C272.032 72.8 271.582 72.53 271.455 72.2C271.329 71.87 270.949 71.6 270.613 71.6C270.276 71.6 270 71.44 270 71.243C270 71.047 269.55 70.774 269 70.636C268.45 70.498 268 70.222 268 70.024C268 69.826 267.46 69.545 266.8 69.4C266.14 69.255 265.6 68.971 265.6 68.768C265.6 68.566 265.324 68.4 264.987 68.4C264.651 68.4 264.276 68.141 264.154 67.824C264.033 67.508 263.408 67.134 262.767 66.993C262.125 66.852 261.6 66.585 261.6 66.4C261.6 66.215 261.06 65.945 260.4 65.8C259.74 65.655 259.2 65.373 259.2 65.173C259.2 64.973 258.48 64.694 257.6 64.554C256.72 64.413 256 64.155 256 63.981C256 63.806 255.46 63.545 254.8 63.4C254.14 63.255 253.6 62.971 253.6 62.768C253.6 62.566 253.33 62.4 253 62.4C252.67 62.4 252.4 62.22 252.4 62C252.4 61.78 252.085 61.599 251.7 61.598C251.315 61.596 250.517 61.343 249.927 61.035C249.337 60.727 248.302 60.354 247.627 60.206C246.952 60.058 246.4 59.782 246.4 59.593C246.4 59.404 245.59 59.128 244.6 58.979C243.61 58.831 242.8 58.565 242.8 58.39C242.8 58.214 242.035 57.942 241.1 57.786C240.165 57.63 239.296 57.339 239.17 57.14C239.043 56.942 238.008 56.669 236.87 56.534C235.731 56.399 234.8 56.14 234.8 55.958C234.8 55.776 233.9 55.508 232.8 55.362C231.7 55.216 230.8 54.963 230.8 54.8C230.8 54.637 229.54 54.379 228 54.227C226.46 54.076 225.2 53.804 225.2 53.623C225.2 53.442 223.625 53.164 221.7 53.004C219.775 52.845 218.107 52.565 217.993 52.384C217.879 52.202 215.314 51.925 212.293 51.769C209.272 51.612 206.8 51.33 206.8 51.142C206.8 50.954 202.3 50.8 196.8 50.8C191.3 50.8 186.8 50.952 186.8 51.138ZM211.696 80.303C211.973 80.528 213.686 80.84 215.502 80.998C217.318 81.155 218.893 81.427 219.002 81.602C219.11 81.778 220.279 82.047 221.6 82.2C222.921 82.353 224.102 82.641 224.224 82.839C224.347 83.038 224.887 83.2 225.424 83.2C225.961 83.2 226.4 83.392 226.4 83.627C226.4 83.867 226.739 83.946 227.175 83.808C227.601 83.673 228.276 83.737 228.675 83.952C229.757 84.533 230.956 84.937 231.342 84.849C231.53 84.807 231.89 84.937 232.142 85.14C232.394 85.342 233.197 85.635 233.927 85.792C234.657 85.948 235.737 86.327 236.327 86.635C236.917 86.943 237.67 87.2 238 87.206C238.33 87.213 239.039 87.555 239.575 87.967C240.112 88.38 240.805 88.62 241.116 88.5C241.426 88.381 241.798 88.445 241.94 88.642C242.262 89.086 245.732 90.8 246.31 90.8C246.543 90.8 246.793 90.945 246.867 91.123C246.94 91.301 248.35 92.117 250 92.937C252.975 94.415 254.415 95.214 254.8 95.601C254.91 95.711 255.54 96.07 256.2 96.398C256.86 96.726 257.715 97.338 258.1 97.758C258.485 98.179 258.8 98.389 258.8 98.226C258.8 97.943 260.68 99.325 262.034 100.602C262.382 100.931 262.806 101.2 262.976 101.2C263.258 101.2 263.896 101.665 266.8 103.984C271.848 108.017 276.653 112.617 281.023 117.6C282.47 119.25 284.092 121.084 284.627 121.674C285.162 122.265 285.6 122.913 285.6 123.112C285.6 123.312 285.96 123.802 286.4 124.2C286.84 124.598 287.2 125.085 287.2 125.281C287.2 125.478 287.65 126.055 288.2 126.565C288.75 127.075 289.2 127.613 289.2 127.762C289.2 128.032 290.796 130.422 291.229 130.8C291.355 130.91 291.589 131.27 291.748 131.6C291.908 131.93 292.48 132.92 293.02 133.8C293.56 134.68 294.113 135.715 294.248 136.1C294.383 136.485 294.638 136.8 294.815 136.8C294.992 136.8 295.255 137.34 295.4 138C295.545 138.66 295.815 139.2 296 139.2C296.185 139.2 296.455 139.74 296.6 140.4C296.745 141.06 297.015 141.6 297.2 141.6C297.385 141.6 297.655 142.14 297.8 142.8C297.945 143.46 298.215 144 298.4 144C298.585 144 298.855 144.54 299 145.2C299.145 145.86 299.429 146.4 299.632 146.4C299.834 146.4 300 146.81 300 147.311C300 147.812 300.247 148.577 300.549 149.011C300.851 149.445 301.225 150.385 301.381 151.1C301.536 151.815 301.809 152.4 301.986 152.4C302.164 152.4 302.431 153.21 302.579 154.2C302.728 155.19 302.998 156 303.179 156C303.361 156 303.631 156.81 303.779 157.8C303.928 158.79 304.2 159.6 304.385 159.6C304.57 159.6 304.847 160.68 305 162C305.153 163.32 305.43 164.4 305.615 164.4C305.8 164.4 306.076 165.66 306.227 167.2C306.379 168.74 306.66 170 306.852 170C307.043 170 307.2 170.619 307.2 171.376C307.2 172.133 307.394 172.873 307.632 173.02C307.907 173.19 307.966 173.993 307.794 175.243C307.613 176.557 307.669 177.2 307.962 177.2C308.242 177.2 308.4 178.344 308.4 180.376C308.4 182.123 308.58 183.664 308.8 183.8C309.043 183.95 309.2 186.871 309.2 191.224C309.2 195.741 309.052 198.4 308.8 198.4C308.565 198.4 308.4 199.8 308.4 201.8C308.4 203.994 308.245 205.2 307.962 205.2C307.667 205.2 307.615 205.851 307.8 207.2C307.985 208.549 307.933 209.2 307.638 209.2C307.394 209.2 307.2 209.908 307.2 210.8C307.2 211.68 307.041 212.4 306.847 212.4C306.652 212.4 306.368 213.568 306.215 214.996C306.062 216.423 305.788 217.684 305.606 217.796C305.424 217.909 305.148 218.946 304.993 220.1C304.837 221.255 304.571 222.38 304.401 222.6C304.231 222.82 303.961 223.63 303.8 224.4C303.639 225.17 303.369 225.98 303.2 226.2C303.031 226.42 302.761 227.23 302.6 228C302.439 228.77 302.169 229.58 302 229.8C301.831 230.02 301.567 230.785 301.414 231.5C301.262 232.215 300.971 232.8 300.768 232.8C300.566 232.8 300.4 233.096 300.4 233.458C300.4 234.052 298.244 238.999 297.113 241C296.864 241.44 295.966 243.15 295.117 244.8C293.55 247.845 292.761 249.239 292.4 249.6C292.046 249.954 291.209 251.374 290.809 252.3C290.595 252.795 290.256 253.2 290.057 253.2C289.857 253.2 289.579 253.515 289.44 253.9C289.079 254.899 288.237 256.275 287.464 257.129C287.099 257.533 286.8 258.003 286.8 258.174C286.8 258.345 286.35 258.839 285.8 259.271C285.25 259.704 284.8 260.294 284.8 260.582C284.8 260.871 284.096 261.743 283.234 262.521C282.373 263.299 281.74 264.006 281.826 264.093C281.952 264.218 272.558 273.568 267.981 277.872C265.818 279.907 263.684 280.426 264.203 278.791C264.332 278.384 264.263 277.724 264.048 277.325C263.553 276.403 263.059 275.117 263.002 274.6C262.978 274.38 262.705 273.48 262.396 272.6C262.087 271.72 261.811 270.91 261.783 270.8C261.579 270.012 260.605 267.749 258.835 263.951C258.156 262.494 257.6 261.099 257.6 260.851C257.6 260.603 257.434 260.4 257.232 260.4C257.029 260.4 256.745 259.86 256.6 259.2C256.455 258.54 256.179 258 255.987 258C255.795 258 255.343 257.378 254.982 256.618C254.621 255.859 254.073 255.026 253.763 254.769C252.883 254.039 253.095 253.051 254.4 251.8C255.06 251.168 255.6 250.429 255.6 250.158C255.6 249.888 255.735 249.607 255.9 249.533C256.276 249.366 258 246.927 258 246.563C258 246.415 258.372 245.971 258.826 245.577C259.281 245.183 259.623 244.748 259.588 244.611C259.492 244.242 262.485 238.241 262.907 237.955C263.106 237.821 263.276 237.551 263.285 237.355C263.304 236.954 263.408 236.549 263.787 235.4C263.933 234.96 264.055 234.51 264.06 234.4C264.064 234.29 264.208 234.02 264.379 233.8C264.779 233.286 265.353 231.141 265.255 230.53C265.213 230.272 265.364 229.946 265.589 229.807C265.815 229.667 266 229.023 266 228.376C266 227.729 266.173 227.2 266.384 227.2C266.595 227.2 266.77 226.705 266.773 226.1C266.779 224.665 267.19 221.564 267.475 220.8C267.818 219.881 267.841 204.749 267.5 204.538C267.335 204.436 267.2 203.474 267.2 202.4C267.2 201.326 267.014 200.333 266.788 200.192C266.549 200.045 266.483 199.363 266.632 198.569C266.773 197.816 266.733 197.2 266.542 197.2C266.351 197.2 265.984 196.525 265.726 195.7C265.468 194.875 265.052 193.66 264.801 193C264.549 192.34 264.323 191.71 264.298 191.6C264.195 191.146 260.802 188.8 260.248 188.8C259.917 188.8 259.564 188.665 259.462 188.5C259.018 187.781 252.8 188.478 252.8 189.247C252.8 189.441 252.564 189.6 252.275 189.6C249.858 189.6 246.418 198.575 248.372 199.783C248.577 199.909 248.869 201.045 249.021 202.306C249.174 203.568 249.438 204.78 249.607 205C250.01 205.522 250.019 219.278 249.617 219.8C249.448 220.02 249.2 221.176 249.066 222.369C248.931 223.563 248.636 224.724 248.411 224.949C248.185 225.175 248 225.702 248 226.12C248 226.855 247.56 228.007 245.963 231.444C245.544 232.348 245.2 233.293 245.2 233.544C245.2 233.795 245.041 234 244.847 234C244.652 234 244.387 234.315 244.258 234.7C243.952 235.606 242.551 238.009 242.015 238.545C241.727 238.833 240.511 237.83 238.056 235.28C236.108 233.256 234.345 231.6 234.14 231.6C233.935 231.6 232.972 230.79 232 229.8C231.028 228.81 230.006 228 229.729 228C229.451 228 228.825 227.46 228.337 226.8C227.849 226.14 227.241 225.6 226.987 225.6C226.732 225.6 226.181 225.218 225.762 224.752C220.578 218.984 212.957 219.842 209.588 226.575C208.784 228.182 208.502 231.769 209.148 232.168C209.34 232.286 209.602 232.882 209.731 233.492C209.949 234.523 212.421 237.6 213.031 237.6C213.181 237.6 214.045 238.225 214.952 238.988C215.858 239.752 217.214 240.877 217.963 241.488C220.202 243.313 231.6 254.517 231.6 254.892C231.6 255.082 232.05 255.655 232.6 256.165C233.15 256.675 233.6 257.222 233.6 257.381C233.6 257.541 234.41 258.597 235.4 259.729C236.39 260.86 237.2 261.936 237.2 262.12C237.2 262.303 237.65 263.043 238.2 263.764C238.75 264.486 239.2 265.261 239.2 265.489C239.2 265.716 239.468 266.124 239.796 266.396C240.123 266.668 240.293 267.05 240.172 267.245C240.051 267.44 240.122 267.6 240.33 267.6C240.642 267.6 241.235 269.007 241.155 269.555C241.142 269.641 241.286 269.821 241.475 269.955C242.025 270.347 243.892 274.199 244.191 275.558C244.341 276.241 244.65 276.8 244.878 276.8C245.107 276.8 245.199 277.16 245.084 277.6C244.969 278.04 245.038 278.4 245.237 278.4C245.437 278.4 245.6 278.749 245.6 279.176C245.6 279.603 245.797 280.075 246.038 280.223C246.278 280.372 246.393 280.927 246.291 281.456C246.19 281.986 246.263 282.515 246.454 282.633C246.644 282.751 246.8 283.377 246.8 284.024C246.8 284.671 247.004 285.2 247.252 285.2C247.546 285.2 247.625 285.691 247.477 286.6C247.353 287.37 247.419 288 247.625 288C247.831 288 248 288.72 248 289.6C248 290.756 247.833 291.2 247.4 291.2C247.07 291.2 246.8 291.366 246.8 291.568C246.8 291.771 246.26 292.055 245.6 292.2C244.94 292.345 244.4 292.629 244.4 292.832C244.4 293.034 244.082 293.2 243.694 293.2C243.306 293.2 242.316 293.56 241.496 294C240.675 294.44 239.642 294.8 239.201 294.8C238.761 294.8 238.4 294.966 238.4 295.168C238.4 295.371 237.815 295.662 237.1 295.814C236.385 295.967 235.62 296.231 235.4 296.4C235.18 296.569 234.37 296.839 233.6 297C232.83 297.161 232.02 297.431 231.8 297.6C231.58 297.769 230.77 298.039 230 298.2C229.23 298.361 228.42 298.631 228.2 298.801C227.98 298.971 226.855 299.237 225.7 299.393C224.546 299.548 223.511 299.82 223.401 299.998C223.291 300.176 222.076 300.449 220.701 300.605C219.325 300.761 218.001 301.049 217.759 301.245C217.516 301.44 215.671 301.717 213.659 301.86C211.646 302.003 210 302.273 210 302.46C210 302.647 208.638 302.8 206.974 302.8C205.309 302.8 203.625 302.973 203.23 303.184C201.019 304.367 197.945 301.47 200.038 300.176C200.28 300.027 200.4 299.379 200.305 298.735C200.211 298.091 200.283 297.472 200.467 297.359C200.65 297.245 200.8 296.274 200.8 295.2C200.8 294.126 200.98 293.136 201.2 293C201.695 292.694 201.751 276.8 201.257 276.8C201.069 276.8 200.788 274.959 200.633 272.708C200.478 270.458 200.2 268.523 200.016 268.408C199.832 268.294 199.552 267.165 199.395 265.9C199.237 264.635 198.968 263.6 198.797 263.6C198.626 263.6 198.384 263.19 198.258 262.688C197.943 261.432 196.009 259.369 194.8 258.999C194.25 258.83 193.675 258.496 193.521 258.257C192.488 256.644 186.372 258.016 183.994 260.394C181.53 262.858 180.327 268.584 181.881 270.456C182.139 270.768 182.476 272.412 182.63 274.111C182.784 275.81 183.066 277.2 183.255 277.2C183.705 277.2 183.706 292.287 183.256 292.565C183.067 292.682 182.791 293.965 182.642 295.417C182.494 296.868 182.22 298.358 182.034 298.728C181.848 299.098 181.314 300.229 180.848 301.243L180.001 303.086L164.9 303.356C155.898 303.517 147.296 303.463 143.6 303.223C140.19 303.002 129.093 302.816 118.94 302.81L100.479 302.8L92.5401 294.9L84.6001 287L84.4881 269.432C84.3741 251.652 84.4391 250.801 85.8531 251.508C87.9721 252.569 89.5191 253.199 90.6001 253.441C91.2601 253.589 91.9801 253.843 92.2001 254.005C92.4201 254.167 93.4511 254.422 94.4911 254.573C95.5311 254.723 96.4861 255.016 96.6141 255.223C96.7421 255.43 97.3771 255.6 98.0241 255.6C98.6711 255.6 99.2001 255.735 99.2001 255.9C99.2001 256.065 99.6951 256.232 100.3 256.271C101.646 256.358 103.988 256.78 104.8 257.083C105.13 257.206 106.057 257.27 106.859 257.226C107.662 257.181 108.438 257.337 108.583 257.572C108.728 257.808 109.996 258 111.4 258C112.804 258 114.064 258.18 114.2 258.4C114.344 258.633 116.604 258.8 119.624 258.8C122.808 258.8 124.8 258.646 124.8 258.4C124.8 258.171 126 258 127.6 258C129.417 258 130.4 257.841 130.4 257.547C130.4 257.25 130.949 257.168 132 257.309C132.88 257.427 133.701 257.361 133.824 257.162C133.947 256.963 134.577 256.8 135.224 256.8C135.871 256.8 136.4 256.607 136.4 256.371C136.4 256.136 136.805 255.982 137.3 256.031C138.157 256.115 138.799 255.951 140.6 255.189C141.04 255.003 141.85 254.73 142.4 254.583C143.266 254.351 152.105 250.072 154.708 248.623C156.088 247.855 159.517 245.191 161.429 243.4C162.369 242.52 163.454 241.608 163.842 241.373C164.229 241.139 164.739 240.599 164.973 240.173C165.208 239.748 165.547 239.292 165.726 239.16C168.601 237.047 166.643 226.8 163.364 226.8C163.09 226.8 162.803 226.608 162.725 226.374C162.647 226.14 161.822 225.846 160.891 225.722C159.961 225.597 159.2 225.338 159.2 225.147C159.2 224.956 158.84 224.8 158.4 224.8C157.96 224.8 157.6 224.956 157.6 225.147C157.6 225.338 156.839 225.597 155.909 225.722C154.978 225.846 154.153 226.14 154.075 226.374C153.997 226.608 153.716 226.8 153.45 226.8C153.184 226.8 152.172 227.61 151.2 228.6C150.228 229.59 149.252 230.4 149.029 230.4C148.807 230.4 148.215 230.878 147.713 231.462C147.211 232.046 146.8 232.375 146.8 232.192C146.8 232.01 146.35 232.283 145.8 232.8C145.25 233.317 144.8 233.591 144.8 233.409C144.8 233.227 144.474 233.453 144.076 233.912C143.678 234.371 142.868 234.868 142.276 235.017C141.684 235.165 141.2 235.433 141.2 235.612C141.2 235.79 140.66 236.055 140 236.2C139.34 236.345 138.8 236.641 138.8 236.857C138.8 237.073 138.475 237.195 138.078 237.128C137.681 237.061 136.901 237.304 136.345 237.668C135.789 238.033 134.493 238.457 133.467 238.611C132.44 238.765 131.6 239.064 131.6 239.276C131.6 239.488 130.98 239.608 130.221 239.543C129.463 239.477 128.715 239.552 128.558 239.708C128.1 240.167 127.2 239.18 127.2 238.218C127.2 237.731 127.072 237.206 126.916 237.05C126.76 236.894 126.683 236.072 126.744 235.224C126.805 234.375 126.663 233.562 126.428 233.417C125.905 233.094 125.827 218.8 126.348 218.8C126.54 218.8 126.822 217.363 126.975 215.607C127.128 213.851 127.406 212.32 127.592 212.205C127.778 212.09 128.054 211.262 128.206 210.365C128.357 209.468 128.732 208.254 129.038 207.667C129.344 207.08 129.596 206.296 129.598 205.924C129.599 205.552 129.766 205.145 129.969 205.019C130.172 204.894 130.457 204.253 130.601 203.595C130.888 202.287 132.559 198.953 133.405 198C133.698 197.67 134.061 196.905 134.212 196.3C134.363 195.695 134.652 195.2 134.853 195.2C135.055 195.2 135.395 194.795 135.609 194.3C136.223 192.881 136.927 191.892 137.9 191.087C138.395 190.677 138.8 190.162 138.8 189.943C138.8 189.466 142.045 185.639 143.956 183.861C144.702 183.168 146.367 181.628 147.656 180.439C148.945 179.251 150 178.051 150 177.772C150 177.494 150.209 177.197 150.465 177.112C151.085 176.905 151.539 170.706 151.004 169.758C150.782 169.365 150.463 168.854 150.296 168.622C148.826 166.584 148.263 166 147.771 166C147.457 166 147.2 165.828 147.2 165.618C147.2 165.408 146.568 165.118 145.796 164.973C145.023 164.828 144.293 164.55 144.172 164.355C143.889 163.897 140.914 163.891 140.632 164.348C140.514 164.54 139.867 164.807 139.196 164.941C138.525 165.075 137.556 165.638 137.042 166.192C136.528 166.747 135.939 167.2 135.731 167.2C135.413 167.2 132.866 169.77 125.581 177.443C124.931 178.127 124.4 178.861 124.4 179.074C124.4 179.286 123.956 179.878 123.412 180.388C122.869 180.899 122.516 181.464 122.628 181.645C122.74 181.826 122.464 182.203 122.016 182.483C121.567 182.763 121.2 183.197 121.2 183.447C121.2 183.697 120.932 184.124 120.604 184.396C120.277 184.668 120.1 185.038 120.211 185.218C120.322 185.398 120.063 185.791 119.635 186.091C119.207 186.39 118.734 187.123 118.585 187.718C118.435 188.313 118.172 188.8 117.998 188.8C117.614 188.8 114.157 195.77 113.782 197.3C113.634 197.905 113.353 198.4 113.157 198.4C112.96 198.4 112.799 198.715 112.798 199.1C112.796 199.485 112.543 200.283 112.235 200.873C111.927 201.463 111.548 202.543 111.392 203.273C111.235 204.003 110.966 204.78 110.792 205C110.619 205.22 110.349 206.435 110.192 207.7C110.036 208.965 109.764 210 109.588 210C109.412 210 109.155 211.395 109.016 213.1C108.877 214.805 108.591 216.513 108.382 216.895C107.844 217.872 107.883 234.523 108.424 235.064C109.298 235.938 108.704 239.385 107.654 239.534C107.133 239.607 106.512 239.472 106.274 239.234C106.035 238.995 105.336 238.8 104.72 238.8C104.104 238.8 103.6 238.617 103.6 238.392C103.6 238.162 103.183 238.089 102.644 238.225C102.118 238.357 101.567 238.27 101.42 238.032C101.273 237.795 100.623 237.6 99.9761 237.6C99.3291 237.6 98.8001 237.437 98.8001 237.237C98.8001 237.038 98.4401 236.969 98.0001 237.084C97.5531 237.201 97.2001 237.096 97.2001 236.847C97.2001 236.601 96.7501 236.4 96.2001 236.4C95.6501 236.4 95.2001 236.237 95.2001 236.037C95.2001 235.838 94.8401 235.769 94.4001 235.884C93.9601 235.999 93.6001 235.913 93.6001 235.693C93.6001 235.346 92.7731 234.929 91.4001 234.585C89.9541 234.222 89.2001 233.854 89.2001 233.511C89.2001 233.293 88.9141 233.224 88.5641 233.359C88.2141 233.493 87.4041 233.23 86.7641 232.774C86.1241 232.318 85.6001 232.07 85.6001 232.222C85.6001 232.374 85.3301 232.274 85.0001 232C84.2211 231.353 84.0791 186.246 84.8551 185.766C85.1691 185.572 85.2311 184.464 85.0541 182.167C84.8951 180.101 84.9501 178.754 85.2001 178.6C85.4201 178.464 85.6001 177.474 85.6001 176.4C85.6001 175.326 85.7931 174.328 86.0281 174.183C86.2881 174.022 86.3561 173.322 86.2001 172.4C86.0441 171.478 86.1121 170.778 86.3721 170.617C86.6071 170.472 86.8001 169.733 86.8001 168.976C86.8001 168.219 86.9621 167.6 87.1611 167.6C87.3591 167.6 87.6471 166.52 87.8001 165.199C87.9531 163.879 88.2241 162.709 88.4021 162.599C88.5801 162.489 88.8491 161.499 89.0001 160.4C89.1511 159.3 89.4271 158.4 89.6131 158.4C89.7991 158.4 90.0721 157.59 90.2211 156.6C90.3691 155.61 90.6391 154.8 90.8211 154.8C91.0021 154.8 91.2721 153.99 91.4211 153C91.5691 152.01 91.8361 151.2 92.0141 151.2C92.1911 151.2 92.4471 150.695 92.5831 150.077C92.7191 149.459 93.3621 147.884 94.0131 146.577C94.6641 145.27 95.1981 143.885 95.1981 143.5C95.1991 143.115 95.3661 142.8 95.5681 142.8C95.7711 142.8 96.0551 142.26 96.2001 141.6C96.3451 140.94 96.6081 140.4 96.7851 140.4C96.9621 140.4 97.2241 140.085 97.3671 139.7C97.5101 139.315 98.2441 137.92 98.9981 136.6C99.7521 135.28 100.597 133.75 100.876 133.2C101.155 132.65 101.477 132.11 101.592 132C102.173 131.442 103.6 129.179 103.6 128.816C103.6 128.587 103.786 128.4 104.013 128.4C104.239 128.4 104.54 128.085 104.681 127.7C104.821 127.315 105.354 126.46 105.865 125.8C106.375 125.14 107.11 124.174 107.496 123.652C108.884 121.784 109.615 121.2 110.567 121.2C111.098 121.2 111.593 121.028 111.667 120.817C111.74 120.607 113.741 120.31 116.113 120.158C118.486 120.005 120.521 119.727 120.637 119.54C120.912 119.096 131.888 119.096 132.163 119.54C132.279 119.727 134.309 120.006 136.674 120.159C139.04 120.311 141.071 120.581 141.188 120.758C141.304 120.934 142.468 121.202 143.774 121.352C145.079 121.502 146.339 121.776 146.574 121.962C146.808 122.147 147.855 122.423 148.9 122.574C149.945 122.725 150.8 122.998 150.8 123.179C150.8 123.361 151.606 123.63 152.591 123.778C153.576 123.925 154.486 124.216 154.614 124.423C154.742 124.63 155.197 124.8 155.624 124.8C156.051 124.8 156.4 124.963 156.4 125.163C156.4 125.362 156.76 125.431 157.2 125.316C157.647 125.199 158 125.304 158 125.553C158 125.799 158.19 126 158.422 126C159.499 126 171.036 131.703 171.646 132.536C171.942 132.941 173.532 133.89 174.5 134.24C174.885 134.379 175.2 134.682 175.2 134.913C175.2 135.144 175.318 135.215 175.463 135.07C175.608 134.925 176.485 135.429 177.412 136.188C178.339 136.948 179.18 137.487 179.28 137.386C179.381 137.286 179.886 137.652 180.401 138.202C180.917 138.751 181.481 139.2 181.653 139.2C181.826 139.2 182.47 139.648 183.084 140.195C185.593 142.43 187.51 144 187.731 144C187.86 144 189.041 145.035 190.355 146.3C191.67 147.565 193.75 149.41 194.979 150.4C196.208 151.39 197.795 152.75 198.507 153.423C199.218 154.096 200.132 154.772 200.538 154.925C200.944 155.079 201.37 155.563 201.485 156.002C201.599 156.441 201.867 156.8 202.078 156.8C202.314 156.8 202.357 157.793 202.191 159.351C202.008 161.056 202.064 161.992 202.359 162.174C202.987 162.563 202.974 176.8 202.345 176.8C202.024 176.8 201.968 177.561 202.153 179.371C202.317 180.976 202.263 182.037 202.008 182.195C201.784 182.334 201.6 183.146 201.6 184C201.6 184.854 201.409 185.671 201.177 185.814C200.938 185.962 200.861 186.568 201 187.2C201.139 187.832 201.062 188.438 200.823 188.586C200.591 188.729 200.4 189.377 200.4 190.024C200.4 190.671 200.199 191.2 199.953 191.2C199.696 191.2 199.6 191.558 199.728 192.046C199.85 192.511 199.794 193.186 199.604 193.546C199.165 194.376 198.664 195.681 198.584 196.2C198.501 196.738 198.014 198.06 197.622 198.813C197.446 199.15 197.175 200.005 197.019 200.713C196.864 201.421 196.55 202 196.322 202C196.093 202 196.001 202.36 196.116 202.8C196.231 203.239 196.19 203.683 196.025 203.785C195.623 204.033 193.2 208.977 193.2 209.549C193.2 209.797 193.034 210 192.832 210C192.629 210 192.345 210.54 192.2 211.2C192.055 211.86 191.783 212.4 191.596 212.4C191.409 212.4 190.852 213.21 190.357 214.2C189.863 215.19 189.31 216 189.129 216C188.948 216 188.8 216.242 188.8 216.538C188.8 216.834 188.44 217.402 188 217.8C187.56 218.198 187.2 218.695 187.2 218.904C187.2 219.114 186.75 219.639 186.2 220.071C185.65 220.504 185.2 221.078 185.2 221.348C185.2 221.617 184.466 222.549 183.568 223.419C180.826 226.076 179.673 229.224 180.187 232.65C180.51 234.806 184.34 239.2 185.896 239.2C186.367 239.2 186.864 239.38 187 239.6C187.306 240.095 190.271 240.132 190.572 239.645C190.693 239.45 191.423 239.172 192.196 239.027C192.968 238.882 193.6 238.592 193.6 238.382C193.6 238.172 193.86 238 194.178 238C194.496 238 195.531 237.078 196.478 235.952C197.425 234.825 198.695 233.445 199.3 232.885C199.905 232.326 200.4 231.655 200.4 231.396C200.4 231.136 200.76 230.598 201.2 230.2C201.64 229.802 202 229.234 202 228.938C202 228.642 202.184 228.4 202.41 228.4C202.635 228.4 202.995 227.995 203.209 227.5C203.653 226.472 204.485 225.095 204.84 224.8C205.199 224.502 207.146 221.161 207.696 219.9C207.959 219.295 208.302 218.8 208.456 218.8C208.61 218.8 208.855 218.26 209 217.6C209.145 216.94 209.415 216.4 209.6 216.4C209.785 216.4 210.055 215.86 210.2 215.2C210.345 214.54 210.615 214 210.8 214C210.985 214 211.255 213.46 211.4 212.8C211.545 212.14 211.829 211.6 212.032 211.6C212.234 211.6 212.4 211.19 212.4 210.689C212.4 210.188 212.647 209.423 212.949 208.989C213.251 208.555 213.625 207.615 213.781 206.9C213.936 206.185 214.209 205.6 214.386 205.6C214.564 205.6 214.831 204.79 214.979 203.8C215.128 202.81 215.398 202 215.579 202C215.761 202 216.03 201.194 216.178 200.209C216.325 199.224 216.603 198.322 216.795 198.203C216.987 198.084 217.267 197 217.418 195.794C217.569 194.587 217.851 193.6 218.046 193.6C218.241 193.6 218.4 192.88 218.4 192C218.4 191.12 218.544 190.4 218.72 190.4C218.896 190.4 218.968 189.791 218.881 189.047C218.795 188.303 218.921 187.573 219.162 187.424C219.403 187.275 219.6 186.383 219.6 185.443C219.6 184.503 219.735 183.599 219.9 183.434C220.064 183.269 220.139 182.089 220.065 180.812C219.986 179.43 220.107 178.381 220.366 178.221C220.637 178.053 220.8 176.236 220.8 173.376C220.8 170.592 220.957 168.8 221.2 168.8C221.42 168.8 221.6 168.98 221.6 169.2C221.6 169.42 221.735 169.562 221.9 169.516C222.372 169.385 226.4 171.358 226.4 171.721C226.4 171.901 226.568 171.944 226.772 171.817C226.977 171.691 227.258 171.77 227.396 171.993C227.534 172.217 227.924 172.4 228.263 172.4C228.602 172.4 229.536 172.683 230.34 173.03C233.215 174.269 234.611 174.894 235.316 175.258C235.71 175.461 236.193 175.528 236.389 175.407C236.584 175.286 236.858 175.37 236.996 175.593C237.134 175.817 237.777 176 238.424 176C239.071 176 239.6 176.192 239.6 176.427C239.6 176.666 239.938 176.747 240.366 176.611C240.788 176.477 241.248 176.555 241.39 176.784C241.531 177.013 242.256 177.2 243 177.2C243.744 177.2 244.467 177.386 244.608 177.612C244.753 177.847 245.431 177.918 246.185 177.776C246.974 177.628 247.617 177.704 247.778 177.964C248.145 178.558 261.05 178.566 261.417 177.972C261.58 177.709 262.284 177.645 263.241 177.807C264.259 177.979 264.8 177.919 264.8 177.635C264.8 177.396 265.329 177.2 265.976 177.2C266.623 177.2 267.266 177.017 267.404 176.793C267.542 176.57 267.804 176.479 267.986 176.591C268.168 176.704 268.83 176.528 269.458 176.2C270.086 175.873 270.915 175.604 271.3 175.602C271.685 175.601 272 175.441 272 175.247C272 174.949 273.07 174.492 273.839 174.461C273.961 174.456 274.364 174.126 274.736 173.726C275.439 172.97 276.392 172.307 277.866 171.548C278.342 171.303 278.84 170.809 278.972 170.451C279.105 170.093 279.486 169.35 279.821 168.8C280.591 167.533 280.492 160.764 279.7 160.5C279.425 160.408 279.2 160.11 279.2 159.836C279.2 159.142 277.693 157.893 275.8 157.02C274.92 156.614 273.887 156.129 273.505 155.941C272.555 155.474 270.502 155.511 270.2 156C270.064 156.22 269.549 156.4 269.056 156.4C268.563 156.4 267.959 156.601 267.714 156.846C266.61 157.95 262.427 159.986 260.693 160.263C259.862 160.396 259.086 160.661 258.968 160.853C258.685 161.309 250.112 161.304 249.829 160.847C249.709 160.653 248.439 160.369 247.006 160.215C245.573 160.062 244.4 159.791 244.4 159.614C244.4 159.436 243.59 159.169 242.6 159.021C241.61 158.872 240.8 158.582 240.8 158.375C240.8 158.169 240.35 158 239.8 158C239.25 158 238.8 157.809 238.8 157.576C238.8 157.343 238.632 157.256 238.428 157.383C238.223 157.509 237.942 157.43 237.804 157.207C237.666 156.983 237.248 156.795 236.876 156.79C236.061 156.778 230.68 154.139 228.93 152.892C228.24 152.402 227.557 152 227.412 152C227.266 152 226.529 151.529 225.773 150.953C225.018 150.376 224.394 150.061 224.387 150.253C224.379 150.444 224.019 150.175 223.587 149.656C223.154 149.136 222.8 148.853 222.8 149.025C222.8 149.198 222.382 148.946 221.87 148.466C221.359 147.986 220.85 147.684 220.739 147.795C220.627 147.906 220.114 147.548 219.599 146.998C219.083 146.449 218.493 146 218.288 146C218.083 146 217.551 145.537 217.105 144.97C216.659 144.404 215.914 143.774 215.447 143.571C214.324 143.082 213.348 142.413 211.988 141.2C211.372 140.65 209.853 139.39 208.613 138.4C207.373 137.41 205.528 135.745 204.513 134.7C203.498 133.655 202.465 132.8 202.217 132.8C201.969 132.8 200.972 131.99 200 131C199.028 130.01 198.046 129.192 197.817 129.183C197.588 129.174 196.958 128.634 196.419 127.983C195.879 127.332 195.235 126.8 194.988 126.8C194.742 126.8 194.116 126.349 193.597 125.797L192.655 124.795L193.803 123.597C194.433 122.939 195.173 122.4 195.446 122.4C195.719 122.4 196.277 121.995 196.687 121.5C197.097 121.005 197.785 120.382 198.216 120.117C199.562 119.287 203.131 117.6 203.542 117.6C203.757 117.6 203.993 117.465 204.067 117.3C204.266 116.852 207.788 115.2 208.544 115.2C208.905 115.2 209.2 115.037 209.2 114.838C209.2 114.638 210.145 114.346 211.3 114.189C212.455 114.032 213.528 113.7 213.685 113.452C214.112 112.777 228.474 112.823 228.7 113.5C228.888 114.063 231.436 114.19 231.768 113.653C231.886 113.461 232.674 113.195 233.519 113.059C235.694 112.712 238.8 109.031 238.8 106.801C238.8 106.361 238.98 106 239.2 106C239.42 106 239.6 105.561 239.6 105.024C239.6 104.487 239.42 103.936 239.2 103.8C238.98 103.664 238.8 103.048 238.8 102.43C238.8 101.813 238.471 100.879 238.068 100.354C237.666 99.829 237.22 99.082 237.078 98.694C236.937 98.306 236.411 97.803 235.91 97.577C235.41 97.351 234.55 96.906 234 96.589C233.45 96.271 232.415 96.009 231.7 96.006C230.985 96.003 230.4 95.811 230.4 95.579C230.4 95.151 229.516 95.1 222 95.098C214.395 95.096 213.2 95.154 213.2 95.527C213.2 95.73 211.94 96.021 210.4 96.173C208.86 96.324 207.6 96.594 207.6 96.773C207.6 96.951 206.707 97.215 205.616 97.36C204.525 97.505 203.537 97.778 203.421 97.966C203.304 98.155 202.577 98.428 201.804 98.573C201.032 98.718 200.4 98.986 200.4 99.168C200.4 99.351 199.845 99.611 199.166 99.747C198.488 99.882 197.408 100.367 196.766 100.824C196.125 101.281 195.6 101.54 195.6 101.4C195.6 101.26 195.105 101.494 194.5 101.92C193.895 102.346 192.95 102.835 192.4 103.005C191.85 103.176 190.815 103.761 190.1 104.305C189.385 104.849 188.8 105.156 188.8 104.986C188.8 104.816 188.44 105.093 188 105.6C187.56 106.107 187.2 106.389 187.2 106.226C187.2 106.062 186.615 106.393 185.9 106.961C185.185 107.529 184.169 108.31 183.642 108.696C183.115 109.083 181.836 110.165 180.8 111.1C179.765 112.035 178.719 112.8 178.477 112.8C178.235 112.8 177.721 113.22 177.334 113.733L176.63 114.665L173.415 113.049C171.647 112.161 170.068 111.246 169.906 111.017C169.744 110.788 169.609 110.771 169.606 110.98C169.603 111.189 169.384 111.144 169.12 110.88C168.856 110.616 168.396 110.4 168.098 110.4C167.8 110.4 166.711 110.004 165.678 109.52C164.645 109.036 163.71 108.616 163.6 108.586C163.49 108.556 163.085 108.411 162.7 108.265C160.931 107.595 160.574 107.473 160.2 107.416C159.98 107.382 159.44 107.212 159 107.039C157.523 106.456 157.002 106.278 156.6 106.216C156.054 106.132 154.752 105.624 153.875 105.152C153.476 104.937 152.816 104.868 152.409 104.997C152.001 105.127 151.552 105.045 151.41 104.816C151.269 104.587 150.724 104.4 150.2 104.4C149.676 104.4 149.133 104.214 148.992 103.988C148.845 103.749 148.163 103.683 147.369 103.832C146.478 103.999 146 103.934 146 103.645C146 103.393 145.307 103.2 144.4 103.2C143.508 103.2 142.8 103.006 142.8 102.762C142.8 102.469 142.157 102.413 140.843 102.594C139.593 102.766 138.79 102.707 138.62 102.432C138.464 102.179 136.983 102 135.056 102C131.369 102 130.373 101.535 131.467 100.325C131.829 99.926 132.326 99.6 132.574 99.6C132.821 99.6 133.283 99.24 133.6 98.8C133.917 98.36 134.385 98 134.639 98C134.894 98 135.324 97.732 135.596 97.404C135.868 97.077 136.25 96.907 136.445 97.028C136.64 97.149 136.8 97.098 136.8 96.915C136.8 96.732 137.475 96.236 138.3 95.814C139.125 95.391 140.363 94.638 141.051 94.14C141.738 93.642 142.413 93.347 142.551 93.484C142.688 93.621 142.8 93.544 142.8 93.313C142.8 92.969 144.173 92.36 144.755 92.445C144.841 92.458 145.021 92.316 145.155 92.131C145.467 91.7 152.066 88.385 152.6 88.391C152.82 88.393 153.522 88.123 154.16 87.79C154.797 87.458 155.407 87.274 155.514 87.381C155.622 87.488 156.231 87.205 156.869 86.751C157.507 86.297 158.292 86.026 158.614 86.15C158.936 86.274 159.2 86.201 159.2 85.987C159.2 85.774 159.549 85.6 159.976 85.6C160.403 85.6 160.874 85.404 161.022 85.165C161.169 84.926 161.63 84.819 162.045 84.928C162.46 85.036 162.8 84.962 162.8 84.763C162.8 84.563 163.149 84.4 163.576 84.4C164.003 84.4 164.475 84.203 164.623 83.962C164.772 83.722 165.327 83.607 165.856 83.709C166.386 83.81 166.915 83.737 167.033 83.546C167.151 83.356 167.676 83.2 168.2 83.2C168.724 83.2 169.253 83.038 169.376 82.839C169.498 82.641 170.679 82.353 171.999 82.2C173.32 82.047 174.4 81.78 174.4 81.608C174.4 81.436 175.975 81.165 177.9 81.007C179.825 80.849 181.588 80.566 181.817 80.38C182.791 79.586 210.722 79.515 211.696 80.303ZM28.7001 288.253C28.3151 288.366 28.0001 288.625 28.0001 288.829C28.0001 289.033 27.7241 289.2 27.3871 289.2C27.0511 289.2 26.6711 289.47 26.5451 289.8C26.4181 290.13 26.0901 290.4 25.8161 290.4C25.1011 290.4 23.3421 292.122 23.0201 293.138C22.8691 293.612 22.5841 294 22.3871 294C22.1891 294 21.9081 294.9 21.7621 296C21.6161 297.1 21.3401 298 21.1481 298C20.9571 298 20.8001 299.08 20.8001 300.4C20.8001 301.72 20.9561 302.8 21.1471 302.8C21.3381 302.8 21.5971 303.561 21.7221 304.491C21.8461 305.422 22.1401 306.247 22.3741 306.325C22.6081 306.403 22.8001 306.729 22.8001 307.05C22.8001 307.69 74.5651 359.6 75.2041 359.6C75.4221 359.6 75.6001 359.766 75.6001 359.968C75.6001 360.171 76.1401 360.455 76.8001 360.6C77.4601 360.745 78.0001 361.029 78.0001 361.232C78.0001 361.434 79.8901 361.6 82.2001 361.6C84.5101 361.6 86.4001 361.434 86.4001 361.232C86.4001 361.029 86.9401 360.745 87.6001 360.6C88.2601 360.455 88.8001 360.171 88.8001 359.968C88.8001 359.766 89.0571 359.6 89.3721 359.6C89.9931 359.6 92.4831 357.37 92.9451 356.4C93.1031 356.07 93.4921 355.35 93.8101 354.8C94.1281 354.25 94.3911 353.305 94.3941 352.7C94.3971 352.095 94.5801 351.6 94.8001 351.6C95.0311 351.6 95.2001 350.333 95.2001 348.6C95.2001 346.95 95.0401 345.6 94.8451 345.6C94.6491 345.6 94.3711 344.97 94.2261 344.2C94.0821 343.43 93.8131 342.8 93.6291 342.8C93.4441 342.8 93.1791 342.485 93.0401 342.1C92.9011 341.715 92.5641 341.04 92.2911 340.6C91.3871 339.144 42.3941 290.4 41.8341 290.4C41.5321 290.4 41.1821 290.13 41.0551 289.8C40.9291 289.47 40.5641 289.2 40.2461 289.2C39.9271 289.2 39.5951 288.984 39.5071 288.721C39.3421 288.227 30.1421 287.829 28.7001 288.253ZM7.90009 308.67C7.29509 308.771 6.80009 309.002 6.80009 309.183C6.80009 309.365 6.34909 309.626 5.79809 309.765C4.72709 310.033 2.02909 312.681 2.01109 313.48C2.00509 313.744 1.73309 314.11 1.40609 314.293C-0.206906 315.196 -0.372906 327.6 1.22809 327.6C1.40309 327.6 1.66209 327.967 1.80509 328.415C1.94709 328.863 5.74509 332.868 10.2441 337.315C19.1881 346.153 21.8381 348.804 40.1031 367.174C46.8691 373.98 52.7641 379.662 53.2031 379.801C53.6411 379.94 54.0001 380.22 54.0001 380.422C54.0001 380.625 54.7201 380.906 55.6001 381.046C56.4801 381.187 57.2001 381.459 57.2001 381.651C57.2001 381.843 59.0901 382 61.4001 382C63.7101 382 65.6001 381.834 65.6001 381.632C65.6001 381.429 66.1401 381.145 66.8001 381C67.4601 380.855 68.0001 380.571 68.0001 380.368C68.0001 380.166 68.2071 380 68.4601 380C69.0301 380 71.3451 377.648 71.7081 376.7C71.8551 376.315 72.1481 376 72.3591 376C72.5701 376 72.8661 375.01 73.0171 373.8C73.1681 372.59 73.4511 371.6 73.6461 371.6C73.8411 371.6 74.0001 370.52 74.0001 369.2C74.0001 367.88 73.8441 366.8 73.6531 366.8C73.4621 366.8 73.2031 366.039 73.0781 365.109C72.9541 364.178 72.6601 363.353 72.4261 363.275C72.1921 363.197 72.0001 362.94 72.0001 362.703C72.0001 361.871 19.3091 309.6 18.4701 309.6C18.0281 309.6 17.5921 309.375 17.5001 309.1C17.3311 308.591 10.2711 308.274 7.90009 308.67Z" fill="#040404"/>
</svg>
